{"glyphs":{"あ":{"ha":1389,"x_min":119,"x_max":1292,"o":"m 699 1122 q 688 1082 692 1101 q 679 1046 683 1063 q 653 896 665 979 q 635 724 642 813 q 628 551 628 635 q 640 344 628 436 q 672 174 651 251 q 715 25 693 96 l 539 -26 q 499 123 518 36 q 468 311 481 210 q 456 518 456 413 q 460 656 456 586 q 470 792 464 725 q 483 923 476 860 q 496 1039 490 986 q 500 1084 499 1060 q 500 1128 501 1108 l 699 1122 m 444 975 q 694 980 579 975 q 916 999 810 985 q 1132 1039 1022 1013 l 1133 863 q 976 840 1064 850 q 794 822 889 829 q 608 812 700 815 q 439 808 517 808 q 354 810 400 808 q 264 815 308 813 q 186 818 219 817 l 181 993 q 251 985 206 990 q 347 978 296 981 q 444 975 399 975 m 1050 760 q 1035 722 1044 747 q 1018 672 1026 697 q 1004 631 1010 646 q 908 403 965 506 q 784 226 850 301 q 654 103 718 150 q 497 13 586 53 q 313 -26 407 -26 q 217 -5 261 -26 q 147 64 174 17 q 119 183 119 111 q 150 331 119 258 q 235 470 181 404 q 363 587 290 536 q 519 668 435 638 q 670 707 588 692 q 833 722 753 722 q 1067 676 964 722 q 1231 545 1169 629 q 1292 350 1292 461 q 1269 205 1292 276 q 1192 74 1246 133 q 1051 -31 1139 14 q 833 -94 964 -75 l 732 67 q 949 128 868 82 q 1065 235 1029 174 q 1101 358 1101 297 q 1069 463 1101 417 q 975 538 1038 510 q 821 567 913 567 q 651 545 725 567 q 526 500 576 524 q 408 419 460 468 q 328 319 357 371 q 300 225 300 267 q 314 176 300 193 q 360 160 328 160 q 474 194 410 160 q 601 288 539 228 q 736 446 674 354 q 839 675 799 538 q 849 715 844 690 q 857 764 853 739 q 863 804 861 789 l 1050 760 z "},"い":{"ha":1389,"x_min":139,"x_max":1318,"o":"m 375 999 q 366 938 369 972 q 360 872 363 904 q 357 819 357 840 q 358 727 357 775 q 360 632 358 679 q 365 535 361 585 q 390 367 374 440 q 433 253 407 294 q 501 211 460 211 q 548 238 526 211 q 588 308 569 265 q 619 398 606 351 q 642 482 633 444 l 797 294 q 703 100 750 172 q 607 -3 657 28 q 499 -35 557 -35 q 351 15 419 -35 q 233 178 282 65 q 165 479 185 292 q 155 615 158 544 q 151 750 151 686 q 150 857 150 814 q 148 928 150 888 q 139 1001 146 968 l 375 999 m 1061 971 q 1138 854 1101 924 q 1206 704 1175 785 q 1260 541 1238 624 q 1298 381 1283 458 q 1318 243 1313 304 l 1114 164 q 1089 347 1107 246 q 1041 551 1071 447 q 968 748 1011 654 q 865 907 925 842 l 1061 971 z "},"う":{"ha":1389,"x_min":192,"x_max":1154,"o":"m 938 453 q 916 530 938 494 q 852 587 894 565 q 746 608 810 608 q 601 596 671 608 q 477 567 532 583 q 389 542 422 551 q 320 518 360 533 q 250 490 281 503 l 192 710 q 273 720 229 713 q 350 735 317 728 q 469 760 403 746 q 614 785 536 775 q 772 796 692 796 q 972 754 886 796 q 1106 634 1057 713 q 1154 444 1154 556 q 1106 243 1154 333 q 967 85 1057 153 q 753 -29 876 17 q 483 -94 631 -75 l 374 99 q 608 141 503 113 q 786 212 713 169 q 899 314 860 254 q 938 453 938 374 m 401 1131 q 549 1107 464 1118 q 724 1088 633 1096 q 897 1074 815 1079 q 1035 1069 979 1069 l 1006 881 q 860 892 943 885 q 687 908 776 899 q 515 927 597 917 q 372 947 433 938 l 401 1131 z "},"え":{"ha":1389,"x_min":133,"x_max":1283,"o":"m 433 1135 q 568 1115 493 1125 q 723 1095 643 1104 q 876 1080 803 1086 q 1004 1069 950 1074 l 981 889 q 851 901 925 893 q 698 917 778 908 q 542 937 618 926 q 404 957 465 947 l 433 1135 m 1060 682 q 1008 644 1031 661 q 965 608 986 626 q 908 558 940 588 q 842 499 875 529 q 784 445 810 469 q 749 410 758 421 q 773 406 757 410 q 801 396 789 403 q 847 364 828 386 q 879 303 865 342 q 892 265 886 286 q 904 224 897 244 q 917 185 911 203 q 949 140 926 156 q 1008 124 971 124 q 1113 126 1064 124 q 1205 135 1163 129 q 1283 147 1247 142 l 1269 -54 q 1190 -63 1242 -58 q 1085 -71 1139 -68 q 994 -74 1031 -74 q 835 -47 893 -74 q 750 46 778 -21 q 735 92 743 67 q 722 141 728 117 q 711 181 715 165 q 680 233 700 218 q 640 247 660 247 q 599 231 621 247 q 553 189 578 215 q 520 154 539 175 q 478 108 501 133 q 428 51 454 82 q 374 -15 403 21 q 314 -87 344 -50 l 133 38 q 181 79 154 56 q 238 132 207 103 q 289 183 257 151 q 363 256 321 215 q 449 343 404 297 q 538 434 493 389 q 623 521 583 479 q 694 596 663 563 q 633 594 667 596 q 564 590 599 593 q 494 585 529 588 q 430 580 460 582 q 376 575 400 578 q 307 567 339 572 q 253 557 275 561 l 236 769 q 297 766 260 768 q 372 764 333 764 q 436 766 392 764 q 540 770 481 768 q 660 776 599 772 q 776 783 721 779 q 867 792 831 788 q 910 799 885 794 q 947 808 936 804 l 1060 682 z "},"お":{"ha":1389,"x_min":103,"x_max":1350,"o":"m 617 1133 q 611 1097 614 1121 q 606 1049 608 1074 q 603 1006 604 1024 q 598 915 600 961 q 594 822 596 869 q 592 726 593 774 q 592 631 592 678 q 592 503 592 574 q 595 364 593 433 q 599 238 597 294 q 600 153 600 182 q 580 10 600 61 q 524 -60 560 -40 q 439 -79 488 -79 q 327 -58 386 -79 q 217 1 268 -36 q 135 88 167 38 q 103 194 103 138 q 155 331 103 264 q 292 456 207 399 q 478 546 378 513 q 670 595 571 579 q 846 611 769 611 q 1043 574 954 611 q 1185 469 1132 538 q 1239 300 1239 400 q 1209 150 1239 219 q 1112 31 1179 81 q 929 -49 1044 -19 q 834 -64 881 -58 q 743 -74 788 -69 l 674 126 q 765 128 721 126 q 844 136 810 129 q 944 167 900 146 q 1013 222 988 189 q 1039 301 1039 256 q 1015 377 1039 346 q 947 425 990 408 q 844 442 904 442 q 668 424 758 442 q 497 376 578 407 q 391 324 438 354 q 318 263 344 294 q 292 203 292 232 q 301 176 292 189 q 324 153 310 163 q 353 138 338 143 q 379 132 368 132 q 408 142 396 132 q 421 189 421 153 q 419 294 421 224 q 416 451 418 364 q 414 624 414 539 q 414 741 414 683 q 414 849 414 799 q 414 940 414 900 q 414 1004 414 981 q 413 1045 414 1019 q 410 1096 411 1071 q 406 1133 408 1121 l 617 1133 m 1001 983 q 1122 923 1056 958 q 1251 852 1189 888 q 1350 790 1313 817 l 1258 635 q 1190 683 1233 654 q 1095 740 1146 711 q 997 794 1044 768 q 918 835 950 819 l 1001 983 m 144 913 q 255 904 207 906 q 340 903 303 903 q 460 908 394 903 q 594 921 526 913 q 728 942 663 929 q 846 969 793 954 l 850 779 q 722 755 790 765 q 584 737 653 744 q 453 724 515 729 q 346 719 392 719 q 229 721 274 719 q 149 726 185 722 l 144 913 z "},"か":{"ha":1389,"x_min":69,"x_max":1371,"o":"m 650 1100 q 638 1038 644 1072 q 624 976 631 1004 q 608 906 617 943 q 593 834 600 869 q 579 765 586 799 q 544 625 565 706 q 494 452 522 544 q 431 266 465 360 q 358 85 397 172 q 276 -71 318 -3 l 75 10 q 167 158 125 76 q 244 325 210 239 q 306 495 279 411 q 353 651 333 579 q 383 776 372 724 q 414 960 403 872 q 422 1125 425 1047 l 650 1100 m 1129 976 q 1197 861 1161 929 q 1267 718 1233 793 q 1328 573 1300 643 q 1371 453 1356 503 l 1175 363 q 1139 495 1163 422 q 1085 643 1115 568 q 1018 785 1054 718 q 944 899 982 851 l 1129 976 m 69 821 q 147 819 108 818 q 225 821 185 819 q 308 826 260 822 q 412 833 357 829 q 522 842 467 838 q 624 851 576 847 q 703 854 671 854 q 837 828 779 854 q 927 741 894 801 q 960 579 960 681 q 953 402 960 499 q 929 217 946 306 q 882 68 913 129 q 788 -34 847 -6 q 647 -62 729 -62 q 561 -57 607 -62 q 479 -43 515 -51 l 446 158 q 506 144 474 151 q 568 133 538 138 q 615 129 599 129 q 675 142 650 129 q 715 186 700 154 q 745 285 733 222 q 763 420 757 347 q 769 558 769 493 q 755 638 769 613 q 710 671 740 663 q 638 679 681 679 q 554 674 607 679 q 442 663 501 669 q 331 650 382 657 q 250 639 279 643 q 169 627 218 633 q 88 614 121 621 l 69 821 z "},"き":{"ha":1389,"x_min":199,"x_max":1211,"o":"m 222 1010 q 505 988 378 992 q 743 993 632 985 q 928 1017 840 1000 q 1106 1060 1017 1033 l 1131 885 q 964 848 1053 864 q 782 825 875 832 q 535 819 675 818 q 233 835 394 819 l 222 1010 m 199 717 q 440 701 325 706 q 657 701 556 697 q 842 713 758 704 q 1038 740 958 722 q 1181 776 1118 758 l 1211 594 q 1072 566 1147 579 q 913 543 997 553 q 709 529 825 533 q 465 527 593 525 q 208 536 336 529 l 199 717 m 658 954 q 634 1036 647 996 q 606 1121 621 1076 l 811 1143 q 834 1011 821 1074 q 863 891 847 949 q 897 778 879 833 q 940 672 914 732 q 999 551 967 611 q 1061 444 1031 492 q 1092 406 1076 424 q 1126 368 1107 388 l 1036 229 q 938 244 997 236 q 814 260 878 253 q 699 274 750 268 l 714 419 q 801 413 753 417 q 879 406 849 408 q 785 585 824 499 q 724 746 747 672 q 696 829 707 794 q 676 892 685 864 q 658 954 668 921 m 483 388 q 439 317 458 354 q 419 235 419 279 q 490 129 419 160 q 690 99 560 99 q 879 106 789 99 q 1044 128 969 114 l 1033 -67 q 868 -85 961 -78 q 690 -93 775 -93 q 449 -63 551 -93 q 290 29 346 -33 q 231 193 233 92 q 249 317 229 263 q 293 424 268 372 l 483 388 z "},"く":{"ha":1389,"x_min":225,"x_max":1054,"o":"m 1032 994 q 962 942 996 968 q 903 894 928 917 q 822 832 868 868 q 724 756 775 796 q 626 678 674 715 q 544 610 579 640 q 499 560 510 579 q 499 523 488 542 q 547 472 511 504 q 624 410 576 447 q 727 325 671 372 q 843 228 783 278 q 958 133 903 179 q 1054 44 1013 86 l 875 -121 q 746 15 813 -50 q 666 93 715 47 q 558 190 617 139 q 442 290 500 240 q 336 381 383 340 q 246 490 267 440 q 251 590 225 540 q 350 697 278 639 q 442 774 390 731 q 549 863 494 817 q 653 951 604 908 q 738 1028 703 994 q 803 1093 771 1060 q 853 1153 835 1126 l 1032 994 z "},"け":{"ha":1389,"x_min":119,"x_max":1282,"o":"m 1088 1111 q 1082 1060 1083 1086 q 1081 1011 1081 1035 q 1079 951 1079 992 q 1079 858 1079 910 q 1079 755 1079 807 q 1079 659 1079 703 q 1079 590 1079 615 q 1070 367 1079 467 q 1030 183 1061 267 q 938 28 999 100 q 776 -110 878 -44 l 599 29 q 690 80 640 47 q 768 147 739 113 q 826 229 803 186 q 864 325 850 272 q 884 443 878 378 q 890 592 890 508 q 890 690 890 632 q 888 811 889 749 q 885 927 886 874 q 881 1011 883 981 q 874 1066 879 1038 q 865 1111 869 1094 l 1088 1111 m 528 843 q 597 835 564 839 q 665 831 631 832 q 735 829 699 829 q 926 833 825 829 q 1122 847 1028 838 q 1282 865 1215 856 l 1281 667 q 1126 654 1217 660 q 936 645 1036 649 q 740 642 836 642 q 675 643 711 642 q 602 646 639 644 q 528 650 565 647 l 528 843 m 400 1086 q 381 1024 390 1058 q 365 967 371 989 q 339 838 353 914 q 316 679 325 763 q 306 518 307 596 q 315 381 304 440 q 347 451 329 410 q 381 528 364 493 l 475 467 q 435 340 454 404 q 403 218 417 275 q 379 119 389 161 q 372 82 375 103 q 371 50 369 61 q 372 22 371 39 q 374 -11 372 6 l 201 -28 q 167 88 186 14 q 133 251 147 163 q 119 425 119 340 q 127 646 119 540 q 145 838 135 751 q 164 981 156 925 q 169 1045 168 1011 q 172 1108 171 1079 l 400 1086 z "},"こ":{"ha":1389,"x_min":200,"x_max":1172,"o":"m 296 1019 q 470 1007 374 1011 q 678 1003 567 1003 q 820 1006 746 1003 q 964 1013 894 1008 q 1088 1022 1033 1017 l 1088 817 q 969 808 1039 813 q 822 802 899 804 q 678 800 746 800 q 474 805 568 800 q 296 815 381 810 l 296 1019 m 429 424 q 414 354 421 388 q 407 286 407 321 q 471 183 407 225 q 681 142 535 142 q 861 149 774 142 q 1028 168 949 156 q 1171 197 1107 181 l 1172 -21 q 1033 -45 1108 -35 q 871 -61 957 -56 q 688 -67 785 -67 q 415 -31 524 -67 q 253 73 307 4 q 200 239 200 142 q 210 352 200 301 q 228 442 221 403 l 429 424 z "},"さ":{"ha":1389,"x_min":192,"x_max":1217,"o":"m 697 986 q 677 1046 689 1010 q 651 1119 665 1082 l 858 1143 q 883 1032 869 1086 q 914 928 897 978 q 947 833 931 878 q 1022 667 979 747 q 1096 542 1065 586 q 1135 491 1115 515 q 1174 443 1154 467 l 1081 307 q 1005 319 1050 313 q 906 331 960 325 q 799 342 853 336 q 700 351 746 347 l 715 514 q 786 508 749 511 q 857 501 824 504 q 911 497 890 499 q 861 586 888 538 q 810 690 835 635 q 764 800 785 744 q 726 904 742 857 q 697 986 710 951 m 192 933 q 441 911 326 917 q 654 909 556 906 q 838 922 753 913 q 963 941 901 931 q 1081 965 1024 951 q 1193 993 1139 978 l 1217 801 q 1119 777 1172 788 q 1010 758 1067 767 q 897 742 954 749 q 586 722 756 725 q 194 738 417 719 l 192 933 m 489 451 q 438 356 456 403 q 421 265 421 310 q 494 144 421 182 q 706 106 567 106 q 915 115 822 106 q 1081 139 1008 125 l 1069 -56 q 917 -76 1013 -65 q 693 -87 822 -87 q 442 -51 549 -87 q 279 58 336 -14 q 222 231 222 129 q 241 358 222 294 q 297 496 260 422 l 489 451 z "},"し":{"ha":1389,"x_min":281,"x_max":1282,"o":"m 528 1107 q 516 1007 521 1061 q 508 908 511 953 q 503 774 506 854 q 497 607 500 694 q 493 437 494 519 q 492 293 492 354 q 516 185 492 225 q 581 129 540 146 q 674 113 622 113 q 826 135 756 113 q 953 197 896 158 q 1057 286 1010 235 q 1142 396 1104 338 l 1282 225 q 1194 119 1249 175 q 1064 15 1140 64 q 889 -66 988 -35 q 671 -97 790 -97 q 467 -61 554 -97 q 334 52 381 -25 q 288 249 288 129 q 289 375 288 303 q 292 526 290 447 q 296 680 294 604 q 299 816 297 756 q 300 908 300 876 q 295 1014 300 963 q 281 1110 290 1065 l 528 1107 z "},"す":{"ha":1389,"x_min":118,"x_max":1301,"o":"m 918 1125 q 914 1087 917 1114 q 910 1034 911 1060 q 907 997 908 1008 q 905 922 906 969 q 904 816 904 874 q 905 700 904 758 q 906 591 906 642 q 907 507 907 540 l 715 567 q 715 640 715 594 q 715 738 715 685 q 715 841 715 790 q 713 933 714 892 q 710 996 711 974 q 702 1076 706 1042 q 696 1125 699 1111 l 918 1125 m 118 958 q 261 959 182 958 q 426 962 340 960 q 593 965 511 964 q 745 967 675 967 q 865 968 815 968 q 978 969 915 968 q 1104 969 1042 969 q 1219 969 1167 969 q 1301 968 1272 968 l 1299 788 q 1123 793 1233 790 q 860 796 1013 796 q 666 794 764 796 q 474 789 568 792 q 291 782 379 786 q 124 774 203 778 l 118 958 m 878 544 q 850 347 878 426 q 767 228 822 268 q 626 189 711 189 q 544 205 588 189 q 465 253 501 221 q 406 335 429 286 q 383 449 383 385 q 422 590 383 531 q 526 682 461 650 q 669 714 592 714 q 828 672 764 714 q 926 558 893 629 q 958 399 958 488 q 935 257 958 332 q 860 112 913 182 q 721 -17 808 42 q 504 -111 633 -75 l 342 51 q 505 97 428 69 q 642 167 582 124 q 735 275 701 211 q 768 432 768 339 q 738 523 768 493 q 665 553 708 553 q 619 542 642 553 q 581 510 596 532 q 567 453 567 488 q 597 384 567 410 q 665 358 628 358 q 720 378 696 358 q 751 447 744 397 q 732 579 758 496 l 878 544 z "},"せ":{"ha":1389,"x_min":49,"x_max":1292,"o":"m 1074 1094 q 1070 1062 1072 1085 q 1067 1014 1068 1039 q 1064 969 1065 989 q 1062 881 1063 922 q 1060 801 1061 839 q 1058 728 1060 764 q 1055 597 1057 665 q 1049 472 1053 529 q 1038 379 1044 414 q 996 303 1025 322 q 911 285 967 285 q 846 288 888 285 q 763 297 804 292 q 696 306 722 301 l 699 475 q 768 463 731 468 q 825 458 806 458 q 853 464 844 458 q 865 489 863 469 q 871 553 869 515 q 874 638 872 592 q 876 731 875 683 q 876 803 876 767 q 876 880 876 840 q 876 961 876 919 q 875 1005 876 979 q 872 1056 874 1031 q 867 1094 869 1081 l 1074 1094 m 526 1054 q 520 983 522 1017 q 518 900 518 949 q 517 804 518 865 q 516 672 517 743 q 515 527 515 600 q 514 394 514 454 q 515 299 514 335 q 523 218 517 249 q 550 170 529 188 q 614 147 571 153 q 732 142 657 142 q 874 147 797 142 q 1022 160 950 151 q 1147 178 1094 168 l 1140 -32 q 1026 -42 1094 -37 q 885 -51 958 -47 q 746 -54 811 -54 q 524 -38 607 -54 q 398 15 440 -22 q 341 113 356 51 q 324 268 326 175 q 323 348 324 297 q 322 462 322 399 q 322 590 322 525 q 322 716 322 656 q 322 822 322 776 q 322 889 322 867 q 319 976 322 936 q 310 1054 315 1017 l 526 1054 m 49 746 q 126 749 78 746 q 231 757 174 751 q 353 769 272 761 q 538 785 435 776 q 753 805 642 794 q 969 824 865 815 q 1151 838 1072 832 q 1219 843 1181 840 q 1292 847 1258 846 l 1292 661 q 1253 662 1279 663 q 1198 660 1226 661 q 1150 658 1169 660 q 1020 651 1097 657 q 855 638 943 646 q 675 622 767 631 q 500 603 583 613 q 349 588 417 594 q 243 576 282 581 q 188 568 222 574 q 120 558 153 563 q 69 551 88 554 l 49 746 z "},"そ":{"ha":1389,"x_min":119,"x_max":1233,"o":"m 335 1071 q 403 1067 369 1068 q 472 1065 436 1065 q 528 1067 490 1065 q 613 1070 565 1068 q 710 1075 661 1072 q 802 1081 760 1078 q 871 1088 844 1085 q 933 1096 908 1092 q 974 1106 958 1100 l 1094 964 q 1033 924 1069 949 q 975 881 997 900 q 913 832 944 857 q 850 781 882 807 q 786 728 818 754 q 725 678 754 703 q 668 633 696 654 q 858 649 757 642 q 1056 660 958 657 q 1232 664 1153 664 l 1233 483 q 1035 490 1133 490 q 874 481 938 489 q 786 456 826 475 q 715 410 746 438 q 667 348 685 383 q 650 271 650 313 q 675 188 650 221 q 745 139 700 156 q 853 115 790 122 q 969 109 910 108 q 1067 113 1028 110 l 1026 -90 q 605 -19 757 -101 q 453 239 453 63 q 464 315 453 276 q 494 388 475 354 q 536 446 514 421 q 341 424 446 439 q 136 392 236 410 l 119 578 q 242 592 175 585 q 364 606 308 600 q 458 672 407 633 q 561 754 510 711 q 658 837 613 797 q 736 906 703 876 q 692 902 718 904 q 635 898 667 900 q 574 894 604 896 q 517 891 543 893 q 472 888 490 889 q 413 882 447 886 q 343 875 379 878 l 335 1071 z "},"た":{"ha":1389,"x_min":113,"x_max":1278,"o":"m 669 1114 q 653 1042 663 1083 q 639 976 644 1000 q 615 860 629 929 q 583 715 601 792 q 547 568 565 639 q 503 410 529 496 q 447 236 476 324 q 385 67 417 149 q 326 -78 354 -14 l 113 -6 q 178 124 143 47 q 245 288 213 200 q 307 462 278 375 q 356 621 336 549 q 381 722 369 671 q 403 819 393 772 q 419 909 413 867 q 431 983 426 951 q 437 1065 436 1025 q 435 1132 438 1106 l 669 1114 m 303 913 q 482 921 390 913 q 667 945 574 929 q 853 982 761 961 l 853 790 q 669 756 767 769 q 476 734 571 742 q 301 726 381 726 q 208 728 250 726 q 131 732 167 731 l 125 924 q 220 915 181 918 q 303 913 260 913 m 738 693 q 870 704 799 700 q 1010 708 942 708 q 1130 706 1068 708 q 1254 696 1192 703 l 1250 511 q 1137 524 1199 518 q 1010 529 1075 529 q 870 526 936 529 q 738 514 804 522 l 738 693 m 826 342 q 814 282 819 314 q 808 229 808 250 q 817 188 808 206 q 846 156 826 169 q 900 135 865 142 q 986 128 935 128 q 1128 135 1056 128 q 1278 157 1200 143 l 1271 -39 q 1140 -52 1211 -46 q 985 -58 1069 -58 q 712 1 806 -58 q 618 167 618 61 q 626 268 618 217 q 643 358 635 319 l 826 342 z "},"ち":{"ha":1389,"x_min":140,"x_max":1217,"o":"m 640 1113 q 621 1037 628 1074 q 604 964 614 1000 q 589 890 597 931 q 570 803 581 849 q 549 712 560 758 q 527 621 539 665 q 504 538 515 576 q 667 597 588 579 q 836 615 747 615 q 1035 578 950 615 q 1168 472 1119 540 q 1217 311 1217 404 q 1163 111 1217 193 q 1009 -17 1110 29 q 769 -76 908 -64 q 457 -72 629 -89 l 403 126 q 624 106 515 108 q 819 124 732 104 q 957 188 906 143 q 1008 307 1008 232 q 958 407 1008 364 q 813 450 908 450 q 594 408 693 450 q 436 288 496 367 q 417 260 425 274 q 399 229 408 247 l 217 292 q 289 463 256 368 q 349 654 322 557 q 392 835 375 751 q 417 975 410 919 q 424 1054 422 1022 q 422 1122 425 1086 l 640 1113 m 140 954 q 290 935 211 943 q 435 928 369 928 q 581 932 501 928 q 749 944 661 936 q 928 966 838 953 q 1104 997 1018 979 l 1108 814 q 961 792 1044 803 q 785 772 878 781 q 603 758 693 764 q 436 751 514 751 q 279 755 354 751 q 142 764 204 758 l 140 954 z "},"つ":{"ha":1389,"x_min":67,"x_max":1296,"o":"m 67 772 q 156 792 106 779 q 244 814 206 804 q 351 848 283 826 q 503 892 419 869 q 674 929 586 914 q 838 944 761 944 q 1069 897 967 944 q 1234 758 1172 850 q 1296 533 1296 667 q 1261 360 1296 440 q 1160 215 1226 281 q 997 101 1094 149 q 775 23 900 53 q 499 -14 650 -7 l 408 190 q 673 216 551 193 q 885 281 794 239 q 1025 387 975 322 q 1075 538 1075 451 q 1047 651 1075 601 q 965 730 1019 701 q 829 758 910 758 q 697 744 769 758 q 549 707 625 731 q 401 656 474 683 q 265 603 328 629 q 154 556 201 576 l 67 772 z "},"て":{"ha":1389,"x_min":94,"x_max":1231,"o":"m 94 964 q 175 967 136 965 q 233 971 214 969 q 342 981 279 975 q 483 994 406 988 q 647 1007 560 1000 q 831 1022 735 1014 q 974 1033 901 1028 q 1114 1042 1047 1038 q 1229 1047 1181 1046 l 1231 850 q 1146 849 1194 850 q 1049 844 1097 847 q 963 832 1001 842 q 852 781 904 818 q 760 692 800 743 q 699 580 721 640 q 676 457 676 519 q 699 342 676 392 q 763 258 722 293 q 860 199 804 222 q 981 163 915 175 q 1117 146 1046 150 l 1046 -65 q 871 -36 956 -60 q 715 27 786 -12 q 589 124 643 67 q 505 253 535 181 q 475 417 475 326 q 505 596 475 514 q 579 738 535 678 q 667 833 624 799 q 576 823 628 829 q 465 810 525 817 q 342 794 404 803 q 222 776 281 786 q 114 754 163 765 l 94 964 z "},"と":{"ha":1389,"x_min":238,"x_max":1185,"o":"m 1165 806 q 1094 765 1131 785 q 1018 725 1058 744 q 941 688 986 710 q 844 640 896 667 q 740 584 792 613 q 640 525 688 556 q 504 412 557 471 q 451 282 451 353 q 521 174 451 210 q 729 138 590 138 q 881 144 800 138 q 1042 163 963 151 q 1185 190 1122 175 l 1183 -32 q 1053 -49 1122 -42 q 906 -62 985 -57 q 735 -67 826 -67 q 539 -51 629 -67 q 381 3 449 -35 q 276 103 314 40 q 238 258 238 167 q 279 425 238 351 q 390 560 321 499 q 540 676 458 622 q 642 739 588 708 q 748 798 696 769 q 845 851 800 826 q 922 893 890 875 q 997 938 964 918 q 1058 982 1029 958 l 1165 806 m 468 1115 q 540 936 501 1021 q 618 778 579 851 q 689 646 657 706 l 513 544 q 434 689 475 608 q 353 858 393 769 q 275 1036 314 946 l 468 1115 z "},"な":{"ha":1389,"x_min":79,"x_max":1325,"o":"m 110 919 q 210 912 157 914 q 299 910 263 910 q 478 919 388 910 q 650 946 568 929 q 794 982 732 963 l 800 806 q 660 774 743 789 q 484 747 578 758 q 300 736 390 736 q 214 738 257 736 q 124 742 171 739 l 110 919 m 663 1124 q 640 1031 654 1086 q 609 912 626 975 q 571 788 592 849 q 490 574 540 688 q 382 353 440 461 q 265 161 324 244 l 79 256 q 172 385 126 314 q 258 531 218 456 q 331 674 299 606 q 382 799 363 743 q 428 969 408 876 q 451 1143 449 1061 l 663 1124 m 989 689 q 986 599 986 646 q 988 503 986 553 q 991 425 989 474 q 996 322 993 376 q 1001 219 999 268 q 1003 143 1003 171 q 977 22 1003 76 q 892 -63 951 -32 q 728 -94 832 -94 q 567 -67 639 -94 q 453 13 496 -40 q 411 144 411 65 q 447 269 411 213 q 554 360 483 326 q 726 393 625 393 q 955 358 850 393 q 1142 270 1060 324 q 1283 164 1225 217 l 1182 -1 q 1097 74 1144 32 q 990 153 1050 115 q 862 215 931 190 q 714 239 793 239 q 625 217 658 239 q 592 163 592 196 q 622 104 592 126 q 701 82 651 82 q 771 98 746 82 q 807 142 796 114 q 818 210 818 171 q 815 297 818 239 q 809 425 813 354 q 802 566 806 496 q 796 689 799 636 l 989 689 m 1217 606 q 1114 676 1175 639 q 989 749 1053 714 q 878 806 925 785 l 976 957 q 1063 916 1014 940 q 1161 865 1111 892 q 1255 813 1211 838 q 1325 768 1299 788 l 1217 606 z "},"に":{"ha":1389,"x_min":133,"x_max":1267,"o":"m 618 981 q 765 969 685 972 q 930 967 846 965 q 1090 972 1014 968 q 1224 982 1167 976 l 1224 785 q 1081 776 1158 779 q 923 772 1003 772 q 765 776 843 772 q 619 785 688 779 l 618 981 m 746 381 q 734 320 738 346 q 731 267 731 294 q 742 226 731 243 q 775 197 753 208 q 831 180 797 186 q 914 174 865 174 q 1089 183 1007 174 q 1263 211 1171 192 l 1267 4 q 1112 -17 1199 -10 q 904 -24 1025 -24 q 635 39 724 -24 q 546 210 546 101 q 552 297 546 253 q 571 396 558 342 l 746 381 m 419 1069 q 406 1028 414 1056 q 392 975 399 1001 q 383 936 386 949 q 369 866 378 911 q 352 763 361 821 q 335 645 343 706 q 321 530 326 585 q 315 435 315 475 q 316 404 315 422 q 319 374 317 386 q 339 415 329 394 q 359 456 349 435 q 378 497 369 476 l 472 424 q 431 296 451 363 q 396 171 411 229 q 372 75 381 113 q 367 39 369 60 q 364 8 364 18 q 364 -19 364 -3 q 365 -51 364 -36 l 189 -62 q 151 128 168 7 q 133 392 133 250 q 140 551 133 471 q 156 706 146 632 q 174 841 165 781 q 189 942 183 901 q 198 1012 193 972 q 204 1088 203 1051 l 419 1069 z "},"ぬ":{"ha":1389,"x_min":64,"x_max":1372,"o":"m 863 1108 q 852 1033 856 1069 q 846 979 849 997 q 825 825 838 910 q 794 656 813 740 q 753 499 776 571 q 672 313 722 406 q 560 143 622 219 q 426 21 497 67 q 283 -25 356 -25 q 174 3 224 -25 q 94 88 124 31 q 64 226 64 144 q 101 445 64 347 q 192 615 139 543 q 299 733 238 676 q 436 835 360 790 q 606 906 513 879 q 807 932 699 932 q 986 901 904 932 q 1129 811 1068 869 q 1224 672 1190 753 q 1258 489 1258 590 q 1239 285 1258 382 q 1177 113 1219 189 q 1066 -6 1135 38 q 900 -49 997 -49 q 722 5 789 -49 q 654 160 654 58 q 683 265 654 214 q 767 351 713 317 q 893 385 821 385 q 1048 363 976 385 q 1179 303 1119 340 q 1288 222 1239 267 q 1372 133 1336 176 l 1258 -11 q 1192 65 1231 22 q 1109 147 1154 107 q 1012 213 1064 186 q 901 239 960 239 q 843 222 865 239 q 821 179 821 204 q 839 138 821 153 q 892 122 857 122 q 968 153 935 122 q 1023 238 1001 185 q 1056 354 1044 290 q 1068 482 1068 418 q 1047 609 1068 556 q 990 699 1026 663 q 903 751 953 735 q 792 768 853 768 q 597 733 682 768 q 451 642 513 697 q 344 526 390 588 q 293 443 317 489 q 256 351 269 397 q 242 261 242 304 q 256 203 242 229 q 294 176 269 176 q 361 207 324 176 q 439 290 399 238 q 515 409 479 343 q 574 546 550 475 q 615 699 597 618 q 642 856 632 779 q 656 986 653 932 q 656 1058 657 1035 q 651 1114 654 1082 l 863 1108 m 321 999 q 349 877 332 939 q 387 756 367 815 q 428 646 407 697 q 469 553 450 594 q 547 413 511 469 q 625 303 583 356 l 504 150 q 456 208 481 176 q 403 285 431 240 q 344 389 376 329 q 293 503 319 440 q 243 632 267 567 q 199 754 219 697 q 185 801 192 779 q 168 851 178 822 q 140 924 158 879 l 321 999 z "},"ね":{"ha":1389,"x_min":53,"x_max":1376,"o":"m 1276 17 q 1156 142 1219 88 q 1025 229 1092 197 q 892 261 958 261 q 842 253 865 261 q 805 233 819 246 q 790 197 790 219 q 821 144 790 160 q 893 129 851 129 q 972 160 940 129 q 1024 245 1004 190 q 1052 374 1043 300 q 1061 533 1061 447 q 1041 657 1061 603 q 983 741 1021 711 q 893 771 946 771 q 778 742 838 771 q 661 665 719 713 q 550 561 603 617 q 454 451 497 506 l 456 679 q 551 767 497 721 q 668 853 606 813 q 796 920 731 894 q 928 946 861 946 q 1101 894 1029 946 q 1211 747 1172 843 q 1250 522 1250 651 q 1235 295 1250 399 q 1181 116 1219 192 q 1074 -1 1142 40 q 906 -43 1007 -43 q 761 -19 825 -43 q 660 57 697 6 q 624 190 624 108 q 658 303 624 253 q 757 384 693 354 q 908 414 821 414 q 1153 353 1038 414 q 1376 175 1269 293 l 1276 17 m 388 724 q 328 717 363 721 q 254 708 293 713 q 176 698 215 703 q 106 688 138 693 l 86 883 q 146 883 117 882 q 215 885 175 883 q 297 893 250 888 q 392 906 343 899 q 483 922 442 914 q 547 939 525 931 l 607 860 q 579 819 596 844 q 545 767 563 793 q 515 724 528 742 l 424 442 q 369 362 401 410 q 301 261 336 314 q 232 159 265 208 q 172 75 199 110 l 53 243 q 113 319 79 276 q 183 410 146 361 q 256 507 219 458 q 322 599 292 556 q 375 676 353 643 l 378 703 l 388 724 m 371 1003 q 371 1066 371 1033 q 364 1132 371 1099 l 586 1126 q 569 1031 579 1092 q 551 894 560 971 q 533 733 542 817 q 520 565 525 649 q 515 406 515 481 q 516 291 515 351 q 519 167 517 231 q 524 38 521 103 q 528 -15 525 19 q 535 -75 532 -50 l 324 -75 q 327 -17 326 -50 q 328 33 328 17 q 331 161 329 101 q 333 289 332 221 q 336 447 335 357 q 340 528 338 479 q 347 634 343 576 q 354 750 350 692 q 363 860 358 808 q 369 951 367 913 q 371 1003 371 989 z "},"の":{"ha":1389,"x_min":79,"x_max":1296,"o":"m 832 953 q 795 728 817 847 q 735 482 774 608 q 639 239 693 342 q 517 80 585 136 q 372 24 450 24 q 224 78 290 24 q 118 226 157 132 q 79 438 79 321 q 128 668 79 560 q 265 860 178 776 q 471 992 353 944 q 726 1040 589 1040 q 962 999 857 1040 q 1141 881 1067 957 q 1256 706 1215 806 q 1296 489 1296 606 q 1237 227 1296 343 q 1060 34 1178 111 q 764 -71 942 -43 l 647 111 q 721 122 690 117 q 781 135 751 128 q 903 182 847 151 q 1000 258 960 213 q 1063 364 1040 304 q 1086 496 1086 424 q 1062 644 1086 578 q 991 760 1038 711 q 877 835 944 808 q 722 861 810 861 q 529 822 613 861 q 390 722 446 783 q 306 590 335 660 q 278 457 278 519 q 292 349 278 393 q 328 283 306 306 q 376 261 351 261 q 432 290 406 261 q 483 377 458 319 q 536 522 508 435 q 589 735 567 621 q 621 960 611 850 l 832 953 z "},"は":{"ha":1389,"x_min":122,"x_max":1349,"o":"m 539 863 q 661 853 600 857 q 786 850 722 850 q 1040 861 913 850 q 1276 896 1167 872 l 1276 704 q 1040 681 1167 689 q 786 671 914 672 q 663 673 725 671 q 540 679 601 675 l 539 863 m 1081 1092 q 1076 1048 1078 1072 q 1072 1001 1074 1024 q 1069 942 1071 979 q 1067 857 1068 904 q 1067 757 1067 810 q 1070 574 1067 657 q 1078 422 1074 490 q 1085 296 1082 353 q 1089 190 1089 239 q 1073 85 1089 133 q 1024 3 1057 38 q 937 -51 990 -32 q 807 -69 883 -69 q 575 -10 661 -69 q 489 164 489 50 q 528 294 489 238 q 638 381 567 350 q 804 411 708 411 q 988 389 906 411 q 1138 331 1071 367 q 1257 256 1204 296 q 1349 178 1310 215 l 1244 17 q 1088 149 1164 94 q 939 233 1013 204 q 789 263 865 263 q 701 242 735 263 q 668 185 668 221 q 703 128 668 146 q 788 111 738 111 q 849 125 826 111 q 882 165 872 139 q 892 231 892 192 q 889 324 892 267 q 883 452 886 382 q 876 601 879 522 q 874 756 874 679 q 873 903 874 838 q 871 999 872 969 q 867 1042 871 1014 q 861 1092 864 1071 l 1081 1092 m 404 1076 q 391 1034 399 1061 q 378 981 383 1007 q 369 943 372 956 q 356 869 364 918 q 338 759 347 821 q 321 633 329 697 q 308 510 313 568 q 303 411 303 451 q 303 381 303 400 q 307 350 304 363 q 326 394 315 374 q 346 434 336 414 q 364 476 356 454 l 458 401 q 417 278 438 342 q 382 158 397 214 q 358 63 367 101 q 353 28 356 49 q 350 -3 350 8 q 350 -31 350 -14 q 351 -62 350 -47 l 178 -75 q 140 112 157 -4 q 122 369 122 228 q 128 533 122 449 q 144 698 135 618 q 163 842 154 778 q 178 947 172 907 q 186 1018 182 978 q 192 1093 190 1058 l 404 1076 z "},"ひ":{"ha":1389,"x_min":115,"x_max":1342,"o":"m 1043 1072 q 1072 934 1053 1006 q 1123 786 1090 863 q 1208 633 1156 710 q 1342 482 1261 556 l 1218 304 q 1077 497 1143 389 q 956 735 1011 604 q 850 1018 900 865 l 1043 1072 m 115 1004 q 194 1004 154 1001 q 309 1013 244 1007 q 439 1029 374 1019 q 562 1050 504 1039 q 654 1074 619 1061 l 711 903 q 677 890 696 899 q 643 871 658 882 q 576 813 613 850 q 503 724 540 775 q 435 613 467 674 q 384 480 403 551 q 365 331 365 408 q 383 233 365 274 q 431 165 400 192 q 504 126 463 139 q 594 114 546 114 q 832 222 751 114 q 921 525 913 329 q 865 985 929 721 l 1046 696 q 1074 474 1069 586 q 1056 260 1078 361 q 978 78 1033 158 q 827 -47 922 -1 q 590 -93 732 -93 q 431 -69 507 -93 q 294 1 354 -46 q 201 119 235 47 q 167 286 167 190 q 182 440 167 368 q 225 578 197 513 q 292 708 253 644 q 382 836 332 772 q 325 831 357 835 q 263 825 293 828 q 214 819 233 822 q 172 814 190 817 q 129 806 153 811 l 115 1004 z "},"ふ":{"ha":1389,"x_min":35,"x_max":1357,"o":"m 636 785 q 684 819 661 801 q 721 846 707 836 q 647 888 692 865 q 552 934 603 911 q 449 975 501 957 l 563 1117 q 686 1069 621 1096 q 814 1014 751 1043 q 925 956 876 985 l 971 836 q 931 803 957 825 q 873 758 904 782 q 812 710 842 733 q 760 672 782 688 l 636 785 m 410 150 q 522 126 468 135 q 621 118 575 118 q 683 126 657 118 q 722 153 708 135 q 735 201 735 172 q 719 269 735 232 q 679 342 703 306 q 630 411 656 379 q 582 463 604 443 q 520 519 554 490 q 449 574 486 549 l 599 700 q 660 642 632 668 q 715 586 689 615 q 845 441 793 510 q 923 308 897 372 q 949 178 949 243 q 926 60 949 108 q 863 -18 903 11 q 772 -60 824 -47 q 663 -72 721 -72 q 549 -67 607 -72 q 438 -51 490 -61 l 410 150 m 1169 29 q 1136 144 1158 82 q 1085 269 1114 206 q 1023 390 1056 332 q 954 493 990 447 l 1121 581 q 1188 485 1153 540 q 1255 365 1222 429 q 1315 240 1288 301 q 1357 129 1342 178 l 1169 29 m 504 290 q 413 201 467 250 q 293 101 360 151 q 151 3 226 50 l 35 168 q 128 226 79 193 q 225 295 178 258 q 314 369 272 332 q 388 440 356 407 l 504 290 z "},"へ":{"ha":1389,"x_min":44,"x_max":1349,"o":"m 44 422 q 106 476 78 449 q 167 536 135 503 q 220 597 190 561 q 284 674 250 632 q 353 760 318 717 q 421 839 388 803 q 569 932 496 926 q 721 863 642 938 q 822 757 771 817 q 922 639 874 697 q 1010 536 971 581 q 1083 460 1044 500 q 1163 376 1121 419 q 1251 289 1206 333 q 1349 200 1297 244 l 1189 15 q 1088 118 1140 61 q 983 233 1035 175 q 889 342 932 292 q 800 450 846 393 q 711 560 754 507 q 636 650 668 613 q 594 682 613 675 q 560 680 576 689 q 525 646 544 671 q 479 585 506 621 q 424 511 453 550 q 369 435 396 472 q 322 368 343 397 q 274 297 297 333 q 232 231 250 260 l 44 422 z "},"ほ":{"ha":1389,"x_min":119,"x_max":1338,"o":"m 1044 953 q 1044 841 1044 900 q 1044 726 1044 782 q 1044 626 1044 671 q 1047 486 1044 551 q 1053 363 1050 421 q 1060 251 1057 304 q 1063 149 1063 197 q 1001 -4 1063 54 q 797 -62 939 -62 q 649 -38 717 -62 q 540 36 581 -14 q 500 164 500 86 q 533 279 500 228 q 631 360 565 331 q 790 390 696 390 q 985 366 897 390 q 1142 306 1074 342 q 1260 232 1211 269 q 1338 169 1310 194 l 1238 3 q 1094 126 1171 71 q 939 215 1018 182 q 783 247 860 247 q 701 228 729 247 q 674 176 674 208 q 700 125 674 143 q 771 107 726 107 q 833 119 810 107 q 867 155 856 132 q 878 208 878 178 q 876 289 878 242 q 872 392 875 336 q 867 507 869 449 q 865 619 865 565 q 865 744 865 679 q 865 866 865 810 q 865 953 865 922 l 1044 953 m 556 714 q 815 704 689 704 q 1056 713 940 704 q 1274 733 1172 721 l 1274 557 q 1066 540 1182 546 q 821 532 950 533 q 557 538 692 531 l 556 714 m 576 1039 q 767 1030 675 1031 q 944 1032 860 1029 q 1104 1042 1029 1035 q 1244 1057 1179 1049 l 1244 888 q 1106 875 1181 881 q 946 867 1031 869 q 769 865 861 864 q 576 869 676 865 l 576 1039 m 401 1079 q 388 1038 396 1064 q 374 985 381 1011 q 365 946 368 958 q 352 872 360 921 q 335 761 344 824 q 319 633 326 699 q 308 510 313 568 q 303 411 303 451 q 303 379 303 400 q 306 346 304 358 q 324 390 314 368 q 345 433 335 411 q 365 476 356 454 l 458 401 q 417 278 438 342 q 382 158 397 214 q 358 63 367 101 q 353 28 356 49 q 350 -3 350 8 q 351 -31 350 -14 q 353 -62 351 -47 l 176 -75 q 137 112 154 -4 q 119 369 119 228 q 126 534 119 449 q 140 700 132 619 q 158 846 149 781 q 174 950 168 911 q 182 1021 178 981 q 188 1097 186 1061 l 401 1079 z "},"ま":{"ha":1389,"x_min":219,"x_max":1222,"o":"m 839 1129 q 833 1081 836 1107 q 829 1029 831 1056 q 828 952 829 1000 q 826 848 826 904 q 825 736 825 792 q 825 636 825 681 q 828 512 825 582 q 837 369 832 442 q 844 231 842 296 q 847 124 847 167 q 815 13 847 61 q 721 -63 783 -35 q 567 -92 658 -92 q 308 -28 396 -92 q 219 149 219 36 q 261 276 219 221 q 381 363 303 332 q 568 394 460 394 q 783 371 683 394 q 966 309 883 347 q 1113 228 1049 271 q 1222 147 1178 185 l 1111 -24 q 999 71 1061 24 q 865 156 938 118 q 713 215 793 193 q 543 238 632 238 q 441 215 476 238 q 406 160 406 192 q 421 118 406 136 q 466 91 436 100 q 538 82 496 82 q 600 90 574 82 q 640 120 626 99 q 654 178 654 142 q 651 262 654 207 q 646 384 649 317 q 640 518 643 451 q 638 636 638 585 q 638 744 638 688 q 639 857 639 801 q 640 958 639 913 q 640 1031 640 1004 q 638 1079 640 1050 q 631 1129 636 1108 l 839 1129 m 250 1006 q 335 994 289 1000 q 428 984 381 989 q 517 977 475 979 q 590 975 558 975 q 876 983 735 975 q 1172 1017 1017 992 l 1171 842 q 1008 824 1103 832 q 806 810 914 815 q 592 806 699 806 q 487 809 549 806 q 363 819 425 813 q 254 831 300 825 l 250 1006 m 242 704 q 321 693 275 699 q 415 685 367 688 q 505 680 463 682 q 572 678 547 678 q 817 683 710 678 q 1016 697 925 688 q 1190 715 1107 706 l 1189 535 q 1050 521 1118 526 q 912 512 982 515 q 758 507 842 508 q 571 506 675 506 q 472 508 532 506 q 351 514 413 510 q 244 524 290 518 l 242 704 z "},"み":{"ha":1389,"x_min":61,"x_max":1338,"o":"m 293 1060 q 356 1056 321 1058 q 411 1054 390 1054 q 481 1055 443 1054 q 560 1057 519 1056 q 636 1060 600 1058 q 697 1064 672 1063 q 753 1073 725 1067 q 800 1086 781 1079 l 921 990 q 893 959 906 974 q 872 931 881 944 q 817 822 849 890 q 753 676 786 754 q 688 525 719 597 q 644 424 667 476 q 599 322 622 372 q 555 226 576 271 q 513 149 533 182 q 415 51 469 83 q 283 19 361 19 q 125 81 189 19 q 61 254 61 143 q 99 412 61 339 q 207 540 138 485 q 372 624 276 594 q 579 654 467 654 q 815 626 701 654 q 1027 556 929 599 q 1204 466 1125 513 q 1338 382 1283 419 l 1249 168 q 1106 282 1183 226 q 941 383 1029 338 q 753 455 853 428 q 547 482 654 482 q 382 452 451 482 q 276 376 313 422 q 240 285 240 331 q 256 238 240 253 q 293 222 271 222 q 328 233 313 222 q 361 269 343 244 q 394 327 378 294 q 428 399 411 360 q 463 479 446 438 q 500 561 481 521 q 549 674 524 615 q 598 788 574 733 q 642 885 622 843 q 592 883 621 885 q 532 881 564 882 q 470 878 500 879 q 417 875 440 876 q 362 870 396 874 q 300 864 328 867 l 293 1060 m 1219 725 q 1190 454 1213 578 q 1122 229 1168 331 q 995 44 1076 128 q 789 -104 914 -39 l 624 29 q 832 158 754 86 q 949 309 910 231 q 1001 460 988 388 q 1019 589 1015 533 q 1022 674 1022 633 q 1018 749 1022 715 l 1219 725 z "},"む":{"ha":1389,"x_min":104,"x_max":1328,"o":"m 565 1129 q 556 1055 561 1097 q 551 943 551 1013 q 551 864 551 918 q 551 744 551 810 q 551 619 551 679 q 551 525 551 560 l 367 593 q 367 678 367 631 q 367 777 367 726 q 367 872 367 828 q 367 943 367 915 q 363 1056 367 1015 q 351 1129 360 1097 l 565 1129 m 1026 1006 q 1102 951 1060 985 q 1187 879 1144 918 q 1267 803 1229 840 q 1328 738 1304 765 l 1189 596 q 1097 697 1150 643 q 992 800 1044 751 q 897 878 939 849 l 1026 1006 m 104 967 q 221 954 161 960 q 329 949 281 949 q 553 963 435 949 q 794 1011 672 976 l 794 826 q 625 796 711 807 q 465 781 539 785 q 343 776 392 776 q 243 779 300 776 q 115 788 186 782 l 104 967 m 522 317 q 522 281 522 303 q 522 234 522 258 q 521 188 521 210 q 526 152 521 168 q 547 125 531 136 q 597 108 564 114 q 689 103 631 103 q 760 106 724 103 q 833 114 797 108 q 896 128 869 119 q 972 180 950 144 q 993 264 993 215 q 991 347 993 304 q 983 439 989 389 l 1196 375 q 1196 310 1196 338 q 1196 260 1196 283 q 1193 208 1196 238 q 1172 97 1189 146 q 1110 12 1154 49 q 981 -53 1067 -25 q 895 -69 949 -62 q 783 -80 842 -76 q 675 -83 724 -83 q 509 -71 574 -83 q 408 -37 444 -58 q 356 10 372 -17 q 336 67 340 38 q 332 125 332 96 q 333 199 332 161 q 333 263 333 236 l 522 317 m 593 469 q 577 347 593 406 q 528 242 561 288 q 442 171 494 197 q 317 144 389 144 q 214 171 263 144 q 135 253 165 197 q 104 401 104 310 q 138 552 104 486 q 232 656 172 618 q 369 694 292 694 q 538 631 482 694 q 593 469 593 568 m 335 328 q 383 345 365 328 q 410 394 401 363 q 418 461 418 425 q 401 521 418 500 q 358 542 385 542 q 310 526 332 542 q 276 482 289 510 q 264 417 264 454 q 286 351 264 375 q 335 328 308 328 z "},"も":{"ha":1389,"x_min":114,"x_max":1247,"o":"m 663 1119 q 647 1047 653 1079 q 636 988 642 1015 q 624 907 632 960 q 607 785 617 854 q 588 641 597 715 q 571 495 579 567 q 558 366 563 424 q 553 274 553 308 q 603 150 553 192 q 751 108 654 108 q 910 135 847 108 q 1006 206 974 161 q 1039 303 1039 250 q 1002 438 1039 372 q 899 567 965 503 l 1114 613 q 1215 445 1183 524 q 1247 278 1247 367 q 1187 89 1247 172 q 1015 -43 1126 6 q 746 -92 903 -92 q 546 -57 632 -92 q 411 51 460 -22 q 363 242 363 124 q 369 355 363 283 q 387 513 376 426 q 409 690 397 600 q 430 861 421 781 q 443 1000 439 942 q 448 1079 447 1053 q 446 1131 449 1106 l 663 1119 m 153 950 q 289 917 214 931 q 443 898 364 904 q 594 892 522 892 q 747 897 676 892 q 868 911 818 901 l 861 728 q 738 718 800 722 q 589 714 676 714 q 438 722 517 714 q 285 742 360 729 q 143 774 210 756 l 153 950 m 124 606 q 278 567 200 581 q 433 548 357 553 q 582 543 510 543 q 717 547 643 543 q 857 560 792 551 l 851 378 q 738 368 797 371 q 614 365 678 365 q 338 380 468 365 q 114 421 208 394 l 124 606 z "},"や":{"ha":1389,"x_min":44,"x_max":1304,"o":"m 719 885 q 660 945 696 910 q 586 1015 624 981 q 522 1069 549 1050 l 664 1168 q 728 1115 690 1149 q 804 1048 767 1082 q 865 989 842 1014 l 719 885 m 360 1042 q 376 1006 367 1028 q 398 963 386 985 q 417 928 410 942 q 503 749 460 844 q 583 567 547 653 q 638 434 607 514 q 701 267 669 354 q 761 98 733 179 q 806 -43 789 17 l 593 -96 q 542 97 572 -7 q 478 301 513 200 q 408 482 443 401 q 356 607 382 546 q 304 726 331 668 q 247 836 278 783 q 207 899 231 863 q 161 964 183 936 l 360 1042 m 44 633 q 131 659 89 644 q 189 681 172 674 q 350 748 269 713 q 510 818 431 783 q 665 881 589 853 q 813 925 740 908 q 950 942 885 942 q 1140 901 1061 942 q 1262 791 1219 860 q 1304 640 1304 722 q 1260 465 1304 539 q 1136 353 1215 392 q 951 314 1057 314 q 835 326 894 314 q 735 353 775 339 l 740 544 q 838 512 788 525 q 931 499 889 499 q 1015 515 976 499 q 1077 564 1053 531 q 1101 647 1101 597 q 1082 708 1101 681 q 1028 751 1063 735 q 946 767 993 767 q 792 740 878 767 q 613 674 707 714 q 429 588 519 633 q 263 502 339 542 q 133 439 186 463 l 44 633 z "},"ゆ":{"ha":1389,"x_min":140,"x_max":1289,"o":"m 386 1010 q 369 961 376 985 q 357 919 363 938 q 344 864 351 896 q 333 797 338 832 q 324 728 328 763 q 321 661 321 693 q 426 788 367 733 q 553 878 485 842 q 696 933 621 915 q 849 951 771 951 q 1082 899 983 951 q 1235 754 1181 846 q 1289 547 1289 663 q 1238 330 1289 426 q 1087 178 1188 233 q 836 122 986 122 q 675 151 754 122 q 531 235 596 181 q 428 369 467 290 l 538 508 q 608 406 569 450 q 701 336 647 361 q 828 311 754 311 q 975 340 915 311 q 1065 422 1035 369 q 1096 544 1096 475 q 1070 665 1096 611 q 988 752 1044 719 q 838 785 931 785 q 641 743 726 785 q 496 636 556 701 q 401 499 436 571 q 354 364 365 426 q 350 331 351 344 q 349 300 349 317 q 351 264 349 289 q 358 211 354 239 q 365 163 361 183 l 189 139 q 153 322 167 215 q 140 532 140 429 q 144 647 140 589 q 153 760 147 706 q 163 862 158 815 q 172 939 168 908 q 176 985 175 961 q 176 1025 178 1010 l 386 1010 m 856 1126 q 875 991 864 1075 q 894 804 886 907 q 901 593 901 701 q 890 404 901 500 q 851 215 879 308 q 768 38 822 121 q 628 -111 714 -46 l 442 -3 q 581 117 528 46 q 663 269 633 188 q 702 435 692 351 q 713 594 713 519 q 708 752 713 674 q 697 901 704 831 q 679 1021 689 971 q 667 1076 674 1047 q 654 1122 661 1104 l 856 1126 z "},"よ":{"ha":1389,"x_min":139,"x_max":1225,"o":"m 803 1119 q 797 1070 800 1099 q 792 1010 794 1042 q 789 950 790 979 q 789 844 789 900 q 789 733 789 789 q 793 595 789 675 q 803 431 797 515 q 813 274 808 347 q 817 158 817 201 q 803 67 817 111 q 755 -13 789 22 q 660 -69 721 -49 q 508 -90 600 -90 q 324 -65 408 -90 q 190 17 240 -40 q 139 172 139 75 q 182 309 139 249 q 311 406 225 369 q 526 442 397 442 q 740 417 638 442 q 934 351 843 392 q 1099 261 1025 311 q 1225 163 1172 211 l 1107 -21 q 990 82 1056 31 q 847 176 925 133 q 681 245 768 219 q 497 271 593 271 q 381 248 424 271 q 339 182 339 225 q 383 115 339 133 q 493 97 428 97 q 582 127 557 97 q 607 225 607 157 q 604 326 607 261 q 599 467 601 390 q 593 614 596 543 q 590 733 590 685 q 590 813 590 775 q 589 886 589 851 q 588 950 589 921 q 584 1019 586 988 q 579 1076 582 1051 q 572 1119 576 1101 l 803 1119 m 686 858 q 772 860 715 858 q 899 864 829 861 q 1040 871 968 867 q 1169 881 1111 875 l 1178 697 q 1046 688 1118 692 q 903 683 974 685 q 776 679 833 681 q 688 678 718 678 l 686 858 z "},"ら":{"ha":1389,"x_min":207,"x_max":1224,"o":"m 463 1126 q 590 1093 514 1110 q 749 1061 667 1076 q 906 1035 832 1046 q 1025 1018 979 1024 l 979 829 q 876 846 936 835 q 750 870 817 857 q 619 897 683 883 q 501 922 554 910 q 415 942 447 933 l 463 1126 m 483 840 q 469 773 476 814 q 454 688 461 732 q 442 602 447 643 q 432 532 436 561 q 625 626 525 596 q 829 656 725 656 q 1043 609 956 656 q 1177 489 1131 563 q 1224 329 1224 415 q 1183 152 1224 235 q 1051 11 1143 69 q 808 -72 960 -47 q 433 -76 657 -96 l 374 125 q 722 114 581 96 q 935 190 863 132 q 1007 333 1007 247 q 982 409 1007 376 q 913 461 957 442 q 811 481 869 481 q 601 440 700 481 q 439 322 501 399 q 406 281 418 299 q 385 240 394 263 l 207 283 q 224 380 215 325 q 240 497 232 435 q 256 624 249 560 q 268 752 263 689 q 276 868 274 815 l 483 840 z "},"る":{"ha":1389,"x_min":114,"x_max":1228,"o":"m 299 1068 q 365 1062 329 1064 q 432 1060 400 1060 q 499 1061 454 1060 q 597 1063 543 1063 q 706 1065 651 1064 q 806 1069 761 1067 q 875 1072 850 1071 q 949 1081 921 1076 q 990 1089 976 1085 l 1086 951 q 1035 920 1061 936 q 985 886 1010 904 q 918 838 956 867 q 840 776 881 808 q 762 713 800 743 q 692 658 724 682 q 751 667 724 665 q 807 669 778 669 q 1020 624 925 669 q 1172 498 1115 578 q 1228 314 1228 418 q 1173 114 1228 206 q 1006 -32 1118 22 q 718 -86 893 -86 q 542 -58 621 -86 q 416 24 463 -29 q 369 150 369 76 q 402 260 369 208 q 494 344 435 313 q 629 376 553 376 q 792 338 725 376 q 894 235 858 300 q 932 93 931 171 l 753 71 q 718 186 751 142 q 629 231 685 231 q 572 211 593 231 q 550 168 550 192 q 585 111 550 133 q 679 89 621 89 q 873 116 796 89 q 988 194 950 143 q 1025 317 1025 246 q 988 424 1025 378 q 886 494 950 469 q 744 519 822 519 q 599 498 665 519 q 474 439 532 476 q 360 349 415 401 q 253 236 306 297 l 114 381 q 194 446 149 408 q 288 524 240 483 q 380 600 336 564 q 454 661 424 636 q 522 715 483 685 q 599 779 560 746 q 675 842 639 813 q 736 894 711 872 q 684 892 715 894 q 617 890 653 890 q 546 888 582 889 q 478 884 510 886 q 424 881 446 882 q 362 876 394 879 q 306 868 329 872 l 299 1068 z "},"ろ":{"ha":1389,"x_min":108,"x_max":1224,"o":"m 294 1058 q 344 1054 313 1057 q 413 1051 375 1051 q 481 1052 435 1051 q 585 1053 526 1053 q 702 1056 643 1054 q 810 1058 761 1057 q 888 1061 860 1060 q 942 1068 913 1064 q 993 1076 972 1072 l 1094 943 q 1051 918 1074 932 q 1013 893 1028 904 q 949 847 985 874 q 870 788 913 819 q 783 722 828 756 q 693 651 738 688 q 751 663 719 660 q 804 665 782 665 q 1024 620 929 665 q 1171 497 1118 575 q 1224 321 1224 419 q 1142 85 1224 182 q 893 -57 1061 -12 q 460 -81 725 -101 l 407 119 q 663 104 551 100 q 852 135 775 108 q 970 209 929 163 q 1011 321 1011 256 q 944 451 1011 399 q 761 503 876 503 q 613 479 682 503 q 482 415 544 456 q 363 322 419 374 q 251 214 306 269 l 108 367 q 233 462 164 407 q 375 577 301 517 q 519 696 449 638 q 644 804 589 754 q 732 888 700 854 q 678 886 710 888 q 610 883 647 885 q 536 878 572 881 q 469 875 500 876 q 419 872 439 874 q 357 867 392 871 q 299 858 322 863 l 294 1058 z "},"わ":{"ha":1389,"x_min":53,"x_max":1319,"o":"m 704 139 q 872 180 796 154 q 1001 247 947 206 q 1085 346 1056 288 q 1114 483 1114 404 q 1099 560 1114 525 q 1055 623 1083 596 q 987 665 1026 650 q 900 681 947 681 q 655 612 767 681 q 440 433 543 543 l 442 650 q 692 814 565 768 q 932 860 819 860 q 1129 812 1042 860 q 1268 678 1217 764 q 1319 479 1319 592 q 1288 288 1319 374 q 1190 138 1256 203 q 1026 26 1125 72 q 794 -46 928 -19 l 704 139 m 388 724 q 328 717 363 721 q 255 708 294 713 q 176 698 215 703 q 106 688 138 693 l 86 885 q 146 884 117 883 q 215 886 175 885 q 297 893 250 888 q 392 906 343 899 q 483 922 440 914 q 547 939 525 931 l 607 860 q 579 819 596 844 q 545 767 563 793 q 515 724 528 742 l 424 442 q 369 362 401 410 q 301 261 336 314 q 232 159 265 208 q 172 75 199 110 l 53 243 q 113 319 79 276 q 183 410 146 361 q 256 507 219 458 q 322 599 292 556 q 375 676 353 643 l 378 703 l 388 724 m 371 1003 q 371 1066 371 1033 q 364 1132 371 1099 l 586 1126 q 569 1031 579 1092 q 551 894 560 971 q 533 733 542 817 q 520 565 525 649 q 515 406 515 481 q 516 291 515 351 q 519 167 517 231 q 524 38 521 103 q 528 -15 525 19 q 535 -75 532 -50 l 324 -75 q 327 -17 326 -50 q 328 33 328 17 q 331 161 329 101 q 333 289 332 221 q 336 447 335 357 q 340 528 338 479 q 347 634 343 576 q 354 750 350 692 q 363 860 358 808 q 369 951 367 913 q 371 1003 371 989 z "},"を":{"ha":1389,"x_min":90,"x_max":1260,"o":"m 686 1119 q 663 1020 678 1081 q 617 883 647 960 q 571 784 597 836 q 518 693 544 732 q 560 705 533 700 q 616 712 588 710 q 665 714 644 714 q 813 663 754 714 q 872 510 872 611 q 873 442 872 482 q 874 358 874 401 q 876 273 875 315 q 878 197 878 231 l 694 197 q 699 251 697 221 q 701 317 700 282 q 702 385 701 353 q 703 447 703 418 q 668 540 703 515 q 593 565 633 565 q 479 537 538 565 q 382 471 421 508 q 321 401 351 439 q 254 315 290 363 l 90 439 q 242 593 176 518 q 356 746 308 668 q 433 904 403 824 q 467 1021 453 961 q 483 1136 481 1081 l 686 1119 m 149 996 q 272 985 203 989 q 396 981 342 981 q 597 985 488 981 q 820 999 707 989 q 1036 1026 933 1008 l 1035 849 q 874 830 961 838 q 699 817 788 822 q 529 810 610 813 q 386 808 449 808 q 317 809 358 808 q 232 813 276 810 q 149 818 188 815 l 149 996 m 1260 585 q 1206 568 1238 579 q 1141 545 1174 557 q 1083 522 1108 533 q 928 460 1018 497 q 742 374 839 424 q 640 313 681 343 q 580 251 600 282 q 560 185 560 221 q 570 142 560 160 q 603 115 581 125 q 662 99 626 104 q 747 94 697 94 q 947 106 838 94 q 1147 136 1056 118 l 1140 -61 q 1028 -73 1097 -67 q 885 -83 960 -79 q 743 -86 811 -86 q 545 -64 632 -86 q 408 10 458 -42 q 357 153 357 63 q 392 288 357 228 q 482 396 426 347 q 603 483 538 444 q 731 553 668 522 q 844 608 794 586 q 935 649 893 631 q 1018 686 978 668 q 1102 724 1061 704 q 1185 764 1143 743 l 1260 585 z "},"ん":{"ha":1389,"x_min":67,"x_max":1340,"o":"m 814 1032 q 792 1001 803 1018 q 769 967 781 983 q 714 883 743 931 q 654 783 685 835 q 595 681 624 732 q 542 585 567 631 q 614 608 576 601 q 688 615 651 615 q 813 567 768 615 q 863 429 857 518 q 864 360 864 401 q 865 276 864 318 q 869 206 865 233 q 897 152 874 168 q 951 136 921 136 q 1028 161 993 136 q 1090 231 1063 186 q 1138 336 1117 276 q 1174 463 1158 396 l 1340 326 q 1247 115 1304 206 q 1109 -26 1190 24 q 919 -75 1028 -75 q 789 -47 842 -75 q 710 25 736 -19 q 679 122 683 69 q 675 206 676 160 q 673 294 674 251 q 669 361 672 336 q 648 415 667 396 q 594 433 629 433 q 511 406 550 433 q 441 332 472 379 q 386 228 410 285 q 358 157 372 197 q 330 72 343 117 q 304 -12 317 28 q 285 -81 292 -51 l 67 -7 q 131 152 93 63 q 214 340 169 242 q 305 535 258 439 q 394 719 351 632 q 470 871 436 806 q 522 969 504 936 q 556 1035 536 997 q 596 1119 575 1072 l 814 1032 z "},"ア":{"ha":1389,"x_min":151,"x_max":1335,"o":"m 1335 940 q 1306 903 1324 926 q 1278 863 1288 879 q 1191 735 1244 807 q 1074 597 1138 664 q 946 482 1011 529 l 788 608 q 866 666 828 635 q 937 731 904 697 q 994 797 969 765 q 1031 853 1018 829 q 971 853 1013 853 q 872 853 929 853 q 748 853 814 853 q 616 853 682 853 q 491 853 550 853 q 388 853 432 853 q 325 853 344 853 q 242 850 281 853 q 151 842 204 847 l 151 1056 q 237 1045 193 1050 q 325 1040 281 1040 q 390 1040 344 1040 q 498 1040 436 1040 q 631 1040 560 1040 q 771 1040 701 1040 q 900 1040 840 1040 q 1002 1040 960 1040 q 1060 1040 1044 1040 q 1113 1042 1082 1040 q 1172 1047 1143 1043 q 1214 1053 1200 1050 l 1335 940 m 767 753 q 763 557 767 653 q 742 373 760 461 q 683 204 724 285 q 569 51 642 124 q 381 -86 497 -22 l 201 60 q 275 91 236 72 q 354 142 314 110 q 456 235 417 186 q 515 340 494 283 q 544 466 536 397 q 553 619 553 535 q 551 685 553 654 q 543 753 550 717 l 767 753 z "},"イ":{"ha":1389,"x_min":78,"x_max":1244,"o":"m 78 550 q 417 663 265 599 q 685 797 568 726 q 829 900 756 842 q 969 1021 903 958 q 1078 1136 1035 1083 l 1244 979 q 1103 850 1181 915 q 941 726 1025 785 q 775 618 857 668 q 598 524 696 572 q 391 432 500 475 q 172 357 282 389 l 78 550 m 653 699 l 872 749 l 872 125 q 874 56 872 93 q 878 -15 875 18 q 886 -67 881 -49 l 642 -67 q 647 -15 644 -49 q 651 56 650 18 q 653 125 653 93 l 653 699 z "},"ウ":{"ha":1389,"x_min":143,"x_max":1272,"o":"m 807 1140 q 799 1066 801 1093 q 797 1006 797 1039 q 797 949 797 988 q 797 870 797 911 q 797 801 797 829 l 582 801 q 582 874 582 833 q 582 951 582 915 q 582 1006 582 988 q 580 1066 582 1039 q 571 1140 578 1093 l 807 1140 m 1272 840 q 1256 781 1264 817 q 1244 724 1249 744 q 1222 622 1235 671 q 1194 524 1210 572 q 1160 430 1179 476 q 1115 336 1140 383 q 972 147 1060 231 q 776 3 885 63 q 544 -87 668 -56 l 385 97 q 492 122 435 106 q 596 157 550 139 q 704 210 650 178 q 807 285 758 243 q 894 381 856 328 q 951 486 928 431 q 990 602 975 542 q 1014 725 1006 663 l 350 725 q 350 682 350 707 q 350 628 350 657 q 350 576 350 600 q 350 535 350 551 q 351 479 350 510 q 356 426 353 449 l 143 426 q 148 488 146 454 q 150 550 150 521 q 150 599 150 567 q 150 668 150 632 q 150 737 150 704 q 150 790 150 769 q 149 851 150 814 q 143 913 147 888 q 214 908 181 910 q 289 907 247 907 l 1019 907 q 1092 911 1064 907 q 1140 922 1121 915 l 1272 840 z "},"エ":{"ha":1389,"x_min":100,"x_max":1289,"o":"m 190 982 q 257 975 218 978 q 326 972 296 972 l 1081 972 q 1148 975 1113 972 q 1214 982 1183 978 l 1214 771 q 1147 776 1182 774 q 1081 778 1111 778 l 326 778 q 257 776 296 778 q 190 771 218 774 l 190 982 m 583 115 l 583 864 l 797 864 l 797 115 l 583 115 m 100 242 q 170 234 133 238 q 240 231 207 231 l 1156 231 q 1228 235 1194 231 q 1289 242 1263 239 l 1289 21 q 1220 25 1260 24 q 1156 26 1181 26 l 240 26 q 172 25 208 26 q 100 21 135 24 l 100 242 z "},"オ":{"ha":1389,"x_min":72,"x_max":1264,"o":"m 960 1121 q 952 1047 954 1088 q 951 972 950 1007 q 954 840 953 910 q 958 694 956 769 q 962 540 960 618 q 965 385 964 463 q 968 231 967 307 q 969 82 969 154 q 931 -27 971 13 q 806 -67 890 -67 q 681 -65 740 -67 q 560 -58 622 -62 l 542 142 q 640 131 589 135 q 725 126 690 126 q 760 140 749 126 q 771 183 771 154 q 771 290 771 232 q 770 416 771 349 q 769 555 769 483 q 766 699 768 626 q 763 840 764 771 q 757 972 761 910 q 751 1056 754 1019 q 742 1121 747 1092 l 960 1121 m 154 892 q 231 885 183 889 q 314 882 278 882 q 387 882 336 882 q 506 882 438 882 q 651 882 575 882 q 803 882 728 882 q 944 882 879 882 q 1053 882 1008 882 q 1114 882 1099 882 q 1194 886 1149 882 q 1264 893 1239 890 l 1264 692 q 1191 694 1229 693 q 1124 694 1153 694 q 1067 694 1113 694 q 956 694 1022 694 q 811 694 889 694 q 654 694 733 694 q 505 694 575 694 q 385 694 435 694 q 319 694 336 694 q 237 693 282 694 q 154 689 192 692 l 154 892 m 72 228 q 279 341 182 278 q 458 471 376 404 q 601 606 539 538 q 700 733 663 674 l 800 732 l 801 568 q 695 437 760 506 q 552 301 631 368 q 387 174 474 233 q 214 68 300 114 l 72 228 z "},"カ":{"ha":1389,"x_min":104,"x_max":1217,"o":"m 749 1121 q 743 1057 746 1096 q 739 993 740 1018 q 706 627 733 788 q 624 341 678 467 q 487 115 571 215 q 283 -69 403 15 l 104 75 q 202 138 150 101 q 299 219 254 174 q 413 371 368 290 q 485 545 458 451 q 522 749 511 639 q 533 989 533 860 q 532 1029 533 1004 q 528 1079 531 1054 q 522 1121 525 1104 l 749 1121 m 1217 819 q 1211 780 1214 803 q 1208 746 1208 757 q 1203 630 1207 700 q 1194 480 1200 560 q 1178 321 1188 400 q 1156 174 1169 242 q 1125 63 1143 107 q 1058 -21 1103 8 q 939 -50 1014 -50 q 817 -46 878 -50 q 707 -37 756 -42 l 682 167 q 783 153 732 158 q 875 147 835 147 q 926 159 910 147 q 951 197 942 171 q 972 265 963 222 q 987 363 981 308 q 999 475 993 417 q 1006 589 1004 533 q 1008 690 1008 644 l 346 690 q 257 689 311 690 q 156 683 203 688 l 156 885 q 254 876 203 879 q 344 874 306 874 l 975 874 q 1030 876 1001 874 q 1086 885 1058 879 l 1217 819 z "},"キ":{"ha":1389,"x_min":119,"x_max":1271,"o":"m 496 994 q 481 1051 489 1025 q 465 1103 474 1078 l 683 1138 q 690 1085 686 1117 q 697 1026 693 1053 q 710 951 701 1004 q 734 824 719 899 q 765 664 749 750 q 799 490 782 578 q 831 322 815 401 q 858 180 846 242 q 878 85 871 118 q 894 17 885 54 q 913 -54 903 -19 l 692 -92 q 683 -16 686 -53 q 674 51 681 21 q 658 140 668 81 q 633 276 647 199 q 601 441 618 354 q 568 615 585 528 q 537 778 551 701 q 511 911 522 854 q 496 994 500 968 m 119 824 q 187 828 154 826 q 253 835 219 831 q 338 847 282 839 q 465 865 393 854 q 613 887 536 875 q 763 910 690 899 q 892 932 835 922 q 979 949 949 942 q 1052 963 1014 954 q 1118 979 1090 972 l 1156 778 q 1091 771 1131 776 q 1018 761 1051 765 q 921 746 982 756 q 786 724 860 736 q 636 700 713 713 q 490 676 560 688 q 369 657 421 665 q 292 644 317 649 q 228 631 258 638 q 161 614 199 624 l 119 824 m 122 415 q 195 421 151 417 q 272 431 239 425 q 372 446 310 436 q 513 468 435 456 q 674 494 592 481 q 835 520 757 507 q 979 545 914 533 q 1083 564 1044 557 q 1163 581 1124 571 q 1231 597 1201 590 l 1271 396 q 1200 388 1242 394 q 1119 374 1158 381 q 1008 356 1075 367 q 863 333 942 346 q 701 306 783 319 q 541 280 618 293 q 403 256 464 267 q 308 239 343 246 q 226 224 263 231 q 165 211 189 218 l 122 415 z "},"ク":{"ha":1389,"x_min":85,"x_max":1260,"o":"m 1260 863 q 1233 813 1247 842 q 1210 756 1219 785 q 1159 619 1192 697 q 1079 458 1126 542 q 968 296 1032 375 q 735 76 868 174 q 407 -100 603 -21 l 225 63 q 474 161 371 107 q 651 276 576 215 q 786 406 726 338 q 872 523 832 457 q 939 655 911 589 q 976 768 967 721 l 521 768 l 590 942 q 650 942 610 942 q 740 942 690 942 q 838 942 789 942 q 924 942 886 942 q 974 942 961 942 q 1044 947 1008 942 q 1103 960 1079 951 l 1260 863 m 811 1085 q 758 1001 783 1046 q 719 935 732 957 q 599 758 671 849 q 441 585 528 668 q 257 435 354 501 l 85 563 q 246 677 176 618 q 366 794 315 736 q 454 906 417 853 q 518 1003 492 960 q 556 1076 536 1031 q 586 1158 576 1121 l 811 1085 z "},"ケ":{"ha":1389,"x_min":49,"x_max":1286,"o":"m 638 1092 q 611 1031 624 1065 q 589 974 599 997 q 558 894 576 939 q 520 805 540 849 q 482 725 500 761 q 416 611 454 671 q 333 497 378 551 q 242 400 288 442 l 49 517 q 120 579 86 544 q 185 653 154 614 q 241 729 215 692 q 288 799 267 767 q 335 897 315 846 q 369 988 356 949 q 390 1065 382 1025 q 400 1139 399 1106 l 638 1092 m 406 883 q 477 883 431 883 q 583 883 524 883 q 710 883 643 883 q 842 883 776 883 q 967 883 908 883 q 1071 883 1026 883 q 1138 883 1115 883 q 1207 886 1164 883 q 1286 894 1250 889 l 1286 685 q 1203 690 1244 689 q 1138 690 1161 690 q 1056 690 1111 690 q 927 690 1000 690 q 774 690 854 690 q 619 690 694 690 q 484 690 544 690 q 390 690 424 690 l 406 883 m 957 772 q 926 492 954 619 q 844 258 897 364 q 713 67 792 151 q 532 -82 635 -18 l 325 56 q 401 93 365 72 q 461 136 438 114 q 573 243 522 183 q 661 381 624 303 q 720 555 699 458 q 743 772 742 651 l 957 772 z "},"コ":{"ha":1389,"x_min":194,"x_max":1222,"o":"m 211 996 q 302 989 251 992 q 389 986 353 986 l 1093 986 q 1165 988 1125 986 q 1219 990 1204 989 q 1217 927 1218 965 q 1215 856 1215 889 l 1215 136 q 1217 50 1215 100 q 1222 -36 1219 0 l 1000 -36 q 1002 37 1001 0 q 1003 113 1003 74 l 1003 788 l 389 788 q 292 786 343 788 q 211 782 242 785 l 211 996 m 194 246 q 278 240 232 243 q 372 238 325 238 l 1125 238 l 1125 35 l 379 35 q 285 32 339 35 q 194 25 231 29 l 194 246 z "},"サ":{"ha":1389,"x_min":76,"x_max":1299,"o":"m 1050 607 q 1031 376 1050 481 q 965 186 1013 272 q 835 31 918 100 q 625 -94 753 -39 l 461 60 q 638 138 564 96 q 758 242 711 181 q 826 391 804 304 q 849 601 849 478 l 849 979 q 847 1056 849 1022 q 840 1113 844 1089 l 1060 1113 q 1053 1056 1057 1089 q 1050 979 1050 1022 l 1050 607 m 547 1100 q 542 1044 546 1078 q 539 967 539 1010 l 539 474 q 540 413 539 442 q 543 361 542 383 q 546 322 544 339 l 331 322 q 335 361 333 339 q 338 413 336 383 q 339 474 339 442 l 339 968 q 336 1033 339 1000 q 329 1100 333 1065 l 547 1100 m 76 856 q 113 849 90 853 q 165 843 135 846 q 229 840 194 840 l 1138 840 q 1231 843 1196 840 q 1299 851 1267 846 l 1299 647 q 1234 651 1272 650 q 1139 651 1196 651 l 229 651 q 165 651 193 651 q 116 649 138 650 q 76 647 94 647 l 76 856 z "},"シ":{"ha":1389,"x_min":106,"x_max":1297,"o":"m 432 1108 q 510 1064 467 1090 q 599 1009 554 1038 q 684 955 643 981 q 753 910 725 929 l 639 740 q 568 786 608 760 q 484 840 528 813 q 398 894 440 868 q 321 939 356 919 l 432 1108 m 161 125 q 319 159 239 139 q 479 208 400 179 q 635 279 558 238 q 857 430 754 346 q 1042 609 960 514 q 1179 804 1125 704 l 1297 594 q 1056 320 1200 449 q 740 93 913 192 q 585 19 669 54 q 418 -42 500 -17 q 276 -78 336 -67 l 161 125 m 217 790 q 297 746 253 772 q 385 692 340 719 q 469 638 429 664 q 538 593 510 613 l 425 421 q 354 468 394 442 q 270 523 314 494 q 184 577 226 551 q 106 621 142 603 l 217 790 z "},"ス":{"ha":1389,"x_min":96,"x_max":1288,"o":"m 1171 944 q 1146 903 1163 932 q 1118 851 1129 875 q 1048 706 1090 786 q 952 544 1006 625 q 838 392 899 463 q 665 216 760 301 q 467 58 571 131 q 256 -65 363 -15 l 96 100 q 315 208 208 142 q 511 349 421 274 q 664 494 601 424 q 751 603 711 546 q 821 718 790 661 q 865 821 851 775 q 816 821 851 821 q 735 821 781 821 q 641 821 690 821 q 546 821 592 821 q 465 821 500 821 q 414 821 429 821 q 351 819 385 821 q 289 815 318 817 q 243 811 260 813 l 243 1029 q 298 1024 265 1026 q 363 1021 331 1022 q 414 1019 394 1019 q 472 1019 433 1019 q 558 1019 510 1019 q 657 1019 606 1019 q 756 1019 708 1019 q 839 1019 803 1019 q 890 1019 875 1019 q 982 1025 940 1019 q 1046 1038 1024 1031 l 1171 944 m 856 518 q 970 419 910 476 q 1091 301 1031 363 q 1203 182 1151 239 q 1288 85 1254 125 l 1111 -68 q 996 81 1061 6 q 858 233 931 157 q 711 375 786 308 l 856 518 z "},"セ":{"ha":1389,"x_min":61,"x_max":1276,"o":"m 383 188 q 383 268 383 214 q 383 391 383 322 q 383 536 383 460 q 383 688 383 613 q 383 827 383 763 q 383 935 383 892 q 382 990 383 958 q 378 1051 381 1021 q 371 1103 375 1082 l 600 1103 q 590 1022 594 1071 q 586 935 586 972 q 586 835 586 892 q 586 713 586 778 q 586 582 586 649 q 586 453 586 515 q 586 336 586 390 q 586 242 586 282 q 598 174 586 200 q 646 138 610 149 q 756 128 682 128 q 903 133 828 128 q 1053 150 978 139 q 1196 175 1128 161 l 1189 -33 q 1060 -48 1133 -40 q 910 -60 988 -56 q 760 -64 832 -64 q 560 -49 636 -64 q 447 -3 485 -35 q 396 75 408 28 q 383 188 383 122 m 1276 794 q 1253 756 1267 779 q 1228 714 1239 733 q 1172 615 1206 671 q 1097 502 1138 560 q 1016 394 1057 444 q 940 308 975 343 l 771 407 q 857 497 815 447 q 933 593 899 546 q 985 675 967 640 q 915 662 964 672 q 799 638 867 651 q 652 608 732 624 q 491 576 572 593 q 335 544 410 560 q 199 516 260 529 q 99 494 138 503 l 61 696 q 167 711 103 701 q 312 735 232 721 q 478 765 392 749 q 649 798 565 782 q 808 829 733 814 q 938 856 882 844 q 1022 874 994 868 q 1081 890 1054 882 q 1128 910 1108 897 l 1276 794 z "},"ソ":{"ha":1389,"x_min":119,"x_max":1232,"o":"m 331 90 q 613 257 499 160 q 801 461 726 354 q 913 680 878 571 q 964 872 947 789 q 979 976 975 925 q 982 1054 983 1026 l 1232 1019 q 1207 926 1219 976 q 1188 843 1194 876 q 1115 597 1160 721 q 993 357 1069 474 q 794 123 913 232 q 514 -68 676 14 l 331 90 m 318 1051 q 378 958 346 1013 q 446 844 411 904 q 510 731 481 785 q 560 639 540 676 l 357 525 q 298 644 329 583 q 235 761 267 704 q 174 867 204 818 q 119 949 144 915 l 318 1051 z "},"タ":{"ha":1389,"x_min":71,"x_max":1260,"o":"m 600 654 q 741 568 664 618 q 897 465 818 518 q 1044 362 975 411 q 1161 274 1114 313 l 1014 99 q 901 197 969 142 q 753 311 832 253 q 599 423 675 369 q 464 514 524 476 l 600 654 m 1260 886 q 1233 837 1246 865 q 1208 779 1219 808 q 1152 640 1188 717 q 1068 483 1117 564 q 957 324 1019 401 q 720 88 858 200 q 382 -100 582 -24 l 204 54 q 460 163 353 101 q 644 293 567 225 q 779 429 722 361 q 866 547 825 482 q 938 676 907 613 q 979 792 968 740 l 522 792 l 592 965 l 975 965 q 1044 969 1008 965 q 1104 982 1079 974 l 1260 886 m 803 1103 q 749 1019 775 1064 q 710 953 724 975 q 588 772 663 867 q 423 589 513 676 q 236 433 333 501 l 71 561 q 278 720 193 638 q 419 880 363 803 q 513 1017 476 957 q 551 1088 531 1043 q 581 1172 571 1133 l 803 1103 z "},"チ":{"ha":1389,"x_min":104,"x_max":1290,"o":"m 207 1007 q 343 1006 261 1006 q 516 1013 425 1007 q 682 1028 607 1018 q 788 1046 736 1036 q 884 1066 839 1056 q 967 1089 929 1076 q 1031 1114 1004 1101 l 1157 944 q 1088 928 1117 936 q 1042 915 1060 919 q 949 895 997 906 q 848 877 900 885 q 743 861 796 869 q 574 844 664 850 q 399 834 483 838 q 256 829 315 831 l 207 1007 m 261 46 q 465 183 386 103 q 580 367 543 263 q 617 597 617 471 q 617 626 617 597 q 617 715 617 654 q 617 876 617 776 l 819 899 q 819 821 819 861 q 819 741 819 781 q 819 670 819 701 q 819 620 819 639 q 819 601 819 601 q 785 338 819 464 q 673 103 751 211 q 458 -86 594 -4 l 261 46 m 104 674 q 168 668 135 671 q 235 665 201 665 q 307 665 253 665 q 439 665 361 665 q 605 665 517 665 q 783 665 693 665 q 951 665 872 665 q 1085 665 1029 665 q 1161 665 1140 665 q 1201 667 1176 665 q 1251 670 1225 668 q 1290 674 1276 672 l 1290 476 q 1228 481 1261 479 q 1164 482 1194 482 q 1090 482 1146 482 q 956 482 1035 482 q 788 482 878 482 q 608 482 697 482 q 440 482 518 482 q 307 482 361 482 q 236 482 253 482 q 168 481 204 482 q 104 476 132 479 l 104 674 z "},"ツ":{"ha":1389,"x_min":82,"x_max":1303,"o":"m 664 1093 q 698 1019 678 1067 q 740 915 718 971 q 782 806 763 858 q 813 719 801 754 l 618 651 q 590 735 608 685 q 551 841 572 786 q 509 947 531 896 q 472 1031 488 997 l 664 1093 m 1303 976 q 1281 916 1290 947 q 1264 860 1271 885 q 1213 694 1246 788 q 1133 506 1179 600 q 1031 336 1088 413 q 869 162 958 240 q 681 24 779 83 q 485 -74 583 -35 l 313 100 q 506 176 407 128 q 697 296 604 225 q 861 456 790 367 q 957 616 914 519 q 1031 824 1000 713 q 1074 1040 1061 935 l 1303 976 m 278 1007 q 317 922 294 974 q 364 812 340 869 q 408 702 388 754 q 440 615 428 650 l 243 543 q 219 610 233 569 q 185 698 204 651 q 147 791 167 744 q 110 876 128 838 q 82 938 93 914 l 278 1007 z "},"テ":{"ha":1389,"x_min":114,"x_max":1293,"o":"m 275 1075 q 352 1068 310 1071 q 429 1065 394 1065 q 513 1065 457 1065 q 640 1065 569 1065 q 781 1065 710 1065 q 906 1065 851 1065 q 986 1065 961 1065 q 1064 1068 1024 1065 q 1142 1075 1104 1071 l 1142 878 q 1065 882 1104 881 q 986 883 1025 883 q 906 883 961 883 q 781 883 851 883 q 640 883 710 883 q 513 883 569 883 q 429 883 457 883 q 351 882 394 883 q 275 878 308 881 l 275 1075 m 114 719 q 182 713 146 715 q 250 710 218 710 q 324 710 269 710 q 454 710 378 710 q 619 710 531 710 q 794 710 707 710 q 958 710 882 710 q 1089 710 1035 710 q 1160 710 1143 710 q 1223 712 1182 710 q 1293 719 1264 714 l 1293 519 q 1228 523 1265 522 q 1160 524 1192 524 q 1089 524 1143 524 q 958 524 1035 524 q 794 524 882 524 q 619 524 707 524 q 454 524 531 524 q 324 524 378 524 q 250 524 269 524 q 181 522 219 524 q 114 518 143 521 l 114 719 m 840 611 q 815 367 840 474 q 747 174 790 260 q 681 75 724 125 q 585 -20 639 25 q 467 -97 531 -65 l 286 32 q 426 114 358 60 q 535 228 494 168 q 607 403 588 307 q 626 610 626 499 l 840 611 z "},"ト":{"ha":1389,"x_min":411,"x_max":1215,"o":"m 426 136 q 426 226 426 164 q 426 367 426 288 q 426 532 426 446 q 426 699 426 618 q 426 841 426 779 q 426 932 426 903 q 423 1019 426 971 q 411 1106 419 1068 l 651 1106 q 642 1023 647 1068 q 638 932 638 978 q 638 835 638 899 q 638 690 638 771 q 638 525 638 610 q 639 362 639 440 q 639 224 639 283 q 639 136 639 164 q 640 81 639 117 q 646 5 642 44 q 653 -65 650 -35 l 411 -65 q 422 35 418 -24 q 426 136 426 93 m 593 747 q 749 701 663 729 q 924 640 835 672 q 1090 577 1013 608 q 1215 522 1167 546 l 1128 308 q 999 369 1069 339 q 858 429 929 400 q 718 483 786 458 q 593 526 650 507 l 593 747 z "},"ナ":{"ha":1389,"x_min":117,"x_max":1296,"o":"m 626 936 q 622 1021 626 972 q 607 1106 617 1069 l 850 1106 q 840 1019 843 1069 q 838 935 838 968 q 838 852 838 896 q 838 761 838 808 q 838 665 838 714 q 821 449 838 553 q 761 251 804 346 q 640 73 718 157 q 439 -86 561 -11 l 247 56 q 434 174 361 108 q 549 317 507 239 q 609 483 592 396 q 626 665 626 571 q 626 761 626 714 q 626 853 626 808 q 626 936 626 899 m 117 804 q 194 797 151 800 q 279 793 236 793 q 347 793 296 793 q 468 793 397 793 q 621 793 539 793 q 785 793 703 793 q 940 793 868 793 q 1064 793 1013 793 q 1135 793 1115 793 q 1229 797 1186 793 q 1296 803 1272 800 l 1296 592 q 1225 597 1272 594 q 1133 599 1178 599 q 1063 599 1114 599 q 940 599 1013 599 q 786 599 868 599 q 622 599 704 599 q 470 599 540 599 q 350 599 400 599 q 283 599 300 599 q 195 596 238 599 q 117 590 153 593 l 117 804 z "},"ニ":{"ha":1389,"x_min":117,"x_max":1247,"o":"m 232 954 q 319 947 271 949 q 403 946 367 946 q 483 946 435 946 q 589 946 532 946 q 706 946 646 946 q 819 946 765 946 q 913 946 872 946 q 972 946 953 946 q 1058 948 1015 946 q 1132 954 1101 950 l 1132 732 q 1056 735 1101 733 q 972 736 1010 736 q 910 736 953 736 q 810 736 868 736 q 690 736 751 736 q 570 736 628 736 q 468 736 513 736 q 404 736 424 736 q 317 735 364 736 q 232 732 269 733 l 232 954 m 117 276 q 208 272 160 275 q 299 268 257 268 q 365 268 318 268 q 478 268 413 268 q 619 268 544 268 q 767 268 693 268 q 908 268 842 268 q 1020 268 974 268 q 1086 268 1067 268 q 1166 271 1122 268 q 1247 276 1210 274 l 1247 42 q 1163 49 1208 46 q 1086 51 1118 51 q 1020 51 1067 51 q 908 51 974 51 q 767 51 842 51 q 619 51 693 51 q 478 51 544 51 q 365 51 413 51 q 299 51 318 51 q 207 49 257 51 q 117 42 157 46 l 117 276 z "},"ヌ":{"ha":1389,"x_min":129,"x_max":1194,"o":"m 1194 928 q 1171 885 1183 910 q 1149 831 1158 860 q 1065 625 1107 718 q 977 454 1024 532 q 874 306 931 376 q 709 138 803 217 q 510 -1 615 60 q 300 -100 406 -62 l 129 74 q 365 169 258 114 q 558 293 472 225 q 706 436 643 361 q 799 567 758 497 q 867 703 839 636 q 910 824 896 769 q 858 824 892 824 q 782 824 825 824 q 690 824 739 824 q 593 824 642 824 q 500 824 544 824 q 421 824 456 824 q 357 822 393 824 q 288 819 321 821 q 233 817 254 818 l 233 1024 q 319 1018 265 1021 q 421 1015 374 1015 q 502 1015 456 1015 q 601 1015 549 1015 q 706 1015 653 1015 q 804 1015 758 1015 q 885 1015 850 1015 q 936 1015 919 1015 q 995 1022 965 1015 q 1047 1038 1025 1029 l 1194 928 m 414 714 q 613 599 507 665 q 826 460 719 533 q 1026 314 932 388 q 1192 179 1121 240 l 1047 8 q 921 121 993 61 q 766 243 849 181 q 599 365 683 306 q 435 474 514 424 q 288 563 356 525 l 414 714 z "},"ネ":{"ha":1389,"x_min":68,"x_max":1338,"o":"m 811 1140 q 805 1080 808 1115 q 801 1011 801 1044 q 801 960 801 989 q 801 903 801 932 q 801 851 801 875 l 600 851 q 600 902 600 875 q 600 958 600 929 q 600 1011 600 986 q 599 1081 600 1046 q 593 1140 597 1115 l 811 1140 m 1201 836 q 1141 772 1172 807 q 1086 711 1110 738 q 995 616 1046 667 q 887 515 944 565 q 765 419 829 464 q 595 317 690 365 q 395 227 500 268 q 186 154 290 186 l 68 335 q 408 444 269 379 q 635 567 546 510 q 728 634 686 600 q 803 701 771 668 q 856 761 836 733 q 797 761 836 761 q 708 761 758 761 q 606 761 658 761 q 506 761 554 761 q 423 761 458 761 q 374 761 388 761 q 313 760 349 761 q 244 758 278 760 q 189 754 211 757 l 189 954 q 282 947 231 949 q 369 944 333 944 q 428 944 385 944 q 529 944 471 944 q 652 944 588 944 q 778 944 717 944 q 885 944 839 944 q 951 944 931 944 q 1017 949 985 944 q 1074 958 1049 953 l 1201 836 m 799 538 q 799 444 799 500 q 799 325 799 389 q 799 201 799 261 q 799 99 799 142 q 800 36 799 71 q 804 -31 801 1 q 808 -85 807 -62 l 589 -85 q 594 -33 592 -65 q 597 35 596 -1 q 599 99 599 71 q 599 188 599 139 q 599 288 599 238 q 599 381 599 338 q 599 456 599 425 l 799 538 m 1210 142 q 1096 228 1150 190 q 989 299 1042 267 q 878 365 936 331 l 1004 511 q 1118 450 1068 478 q 1219 390 1168 422 q 1338 311 1269 358 l 1210 142 z "},"ノ":{"ha":1389,"x_min":140,"x_max":1171,"o":"m 1171 1021 q 1135 937 1150 981 q 1106 857 1119 893 q 1036 683 1076 776 q 947 503 996 590 q 843 346 899 415 q 703 197 785 274 q 523 51 621 119 q 314 -60 425 -17 l 140 119 q 347 214 250 158 q 525 338 443 269 q 668 481 607 407 q 788 663 736 561 q 876 874 840 765 q 931 1083 913 983 l 1171 1021 z "},"ハ":{"ha":1389,"x_min":58,"x_max":1331,"o":"m 276 463 q 321 587 300 522 q 358 720 342 651 q 388 858 375 789 q 407 994 401 926 l 631 947 q 617 898 625 926 q 604 842 610 869 q 594 799 599 815 q 576 710 588 761 q 547 601 564 658 q 514 488 531 544 q 479 385 497 432 q 421 243 456 317 q 348 102 386 169 q 275 -15 310 35 l 58 75 q 182 265 124 160 q 276 463 240 369 m 961 485 q 916 603 942 540 q 863 731 890 667 q 809 851 835 794 q 760 947 783 907 l 965 1013 q 1015 914 988 972 q 1072 791 1043 856 q 1126 664 1100 726 q 1171 553 1153 601 q 1210 446 1189 508 q 1255 316 1232 383 q 1297 183 1278 249 q 1331 65 1317 118 l 1103 -8 q 1061 163 1083 78 q 1015 329 1039 247 q 961 485 990 411 z "},"ヒ":{"ha":1389,"x_min":265,"x_max":1208,"o":"m 490 1101 q 483 1023 486 1068 q 481 947 481 978 q 481 874 481 926 q 481 753 481 822 q 481 608 481 685 q 481 462 481 532 q 481 338 481 392 q 481 257 481 283 q 502 198 481 214 q 568 174 524 182 q 639 167 600 168 q 722 165 678 165 q 843 169 776 165 q 978 178 910 172 q 1106 194 1046 185 q 1208 214 1165 203 l 1208 -10 q 1054 -26 1142 -19 q 877 -35 967 -32 q 710 -37 788 -37 q 579 -33 640 -37 q 472 -22 518 -29 q 328 49 381 -4 q 275 194 275 103 q 275 300 275 235 q 275 443 275 365 q 275 600 275 521 q 275 750 275 679 q 275 873 275 821 q 275 947 275 925 q 274 998 275 969 q 270 1055 272 1026 q 265 1101 268 1083 l 490 1101 m 390 678 q 534 713 458 693 q 685 757 610 733 q 829 805 761 781 q 950 851 897 829 q 1027 884 989 865 q 1110 929 1065 903 l 1192 735 q 1102 699 1149 718 q 1021 667 1056 679 q 882 617 960 643 q 719 565 804 590 q 549 517 633 540 q 392 478 465 494 l 390 678 z "},"フ":{"ha":1389,"x_min":175,"x_max":1246,"o":"m 1246 925 q 1228 874 1236 904 q 1213 821 1219 844 q 1183 708 1200 771 q 1140 578 1165 646 q 1081 444 1115 511 q 1003 317 1047 376 q 856 160 940 233 q 668 28 772 86 q 442 -71 564 -31 l 274 114 q 515 194 414 146 q 690 306 615 243 q 819 436 764 368 q 896 558 864 493 q 948 689 928 624 q 978 813 968 754 q 910 813 957 813 q 801 813 863 813 q 673 813 740 813 q 542 813 606 813 q 426 813 478 813 q 349 813 375 813 q 251 810 299 813 q 175 806 203 808 l 175 1022 q 228 1017 197 1019 q 293 1013 260 1014 q 349 1011 326 1011 q 413 1011 372 1011 q 506 1011 454 1011 q 616 1011 558 1011 q 730 1011 674 1011 q 835 1011 786 1011 q 922 1011 885 1011 q 976 1011 958 1011 q 1031 1013 999 1011 q 1094 1022 1064 1014 l 1246 925 z "},"ヘ":{"ha":1389,"x_min":51,"x_max":1344,"o":"m 51 426 q 111 479 85 454 q 171 538 138 504 q 224 595 194 561 q 290 671 254 629 q 362 758 325 713 q 436 847 399 804 q 567 930 499 922 q 719 858 636 938 q 817 764 768 814 q 913 665 865 714 q 1001 571 960 615 q 1108 457 1049 521 q 1230 326 1168 393 q 1344 203 1292 260 l 1175 21 q 1078 142 1131 78 q 977 266 1026 206 q 889 374 928 326 q 822 451 858 410 q 750 531 785 492 q 685 603 715 571 q 638 653 656 635 q 581 684 606 686 q 528 646 556 682 q 483 585 508 621 q 429 512 457 550 q 375 437 401 474 q 329 371 349 400 q 280 301 304 338 q 238 236 256 265 l 51 426 z "},"ホ":{"ha":1389,"x_min":61,"x_max":1333,"o":"m 828 1119 q 823 1086 826 1110 q 817 1036 819 1063 q 814 992 814 1010 q 814 899 814 950 q 814 798 814 849 q 814 704 814 747 q 814 627 814 676 q 814 517 814 578 q 814 389 814 456 q 814 260 814 322 q 814 148 814 199 q 814 67 814 97 q 776 -33 814 4 q 663 -69 739 -69 q 583 -68 622 -69 q 504 -64 543 -67 q 428 -58 465 -61 l 410 132 q 496 120 454 124 q 563 117 538 117 q 600 127 589 117 q 613 164 611 138 q 613 215 613 176 q 613 310 613 254 q 613 427 613 365 q 613 546 613 489 q 613 645 613 603 q 613 704 613 688 q 613 781 613 729 q 613 892 613 833 q 613 993 613 950 q 609 1061 613 1021 q 601 1119 606 1101 l 828 1119 m 132 901 q 201 894 164 897 q 271 890 238 890 q 338 890 288 890 q 459 890 389 890 q 610 890 529 890 q 772 890 690 890 q 926 890 854 890 q 1050 890 997 890 q 1125 890 1103 890 q 1198 893 1156 890 q 1268 900 1240 896 l 1268 699 q 1196 703 1235 701 q 1126 704 1157 704 q 1052 704 1104 704 q 928 704 1000 704 q 776 704 857 704 q 613 704 694 704 q 462 704 532 704 q 341 704 392 704 q 271 704 290 704 q 201 703 240 704 q 132 699 163 701 l 132 901 m 496 511 q 437 410 471 464 q 365 301 403 356 q 291 199 326 246 q 228 122 256 153 l 61 235 q 133 312 96 268 q 204 403 169 356 q 269 499 239 450 q 321 593 299 549 l 496 511 m 1097 599 q 1156 519 1124 565 q 1221 420 1188 472 q 1283 319 1254 368 q 1333 233 1313 271 l 1153 133 q 1102 232 1131 181 q 1043 335 1074 283 q 983 431 1013 386 q 929 508 953 475 l 1097 599 z "},"マ":{"ha":1389,"x_min":119,"x_max":1332,"o":"m 1332 874 q 1303 841 1317 856 q 1282 811 1290 826 q 1183 666 1240 744 q 1056 508 1125 588 q 910 356 986 428 q 756 225 833 283 l 603 368 q 727 467 668 413 q 837 578 786 521 q 928 690 888 635 q 996 793 969 744 q 924 793 969 793 q 822 793 879 793 q 701 793 764 793 q 574 793 638 793 q 453 793 510 793 q 353 793 397 793 q 285 793 310 793 q 224 791 257 793 q 163 786 192 789 q 119 781 135 783 l 119 997 q 167 990 138 994 q 229 984 197 986 q 285 982 261 982 q 347 982 304 982 q 448 982 390 982 q 572 982 506 982 q 707 982 639 982 q 839 982 775 982 q 954 982 903 982 q 1039 982 1006 982 q 1181 999 1128 982 l 1332 874 m 578 206 q 509 273 547 238 q 428 346 471 308 q 347 415 386 383 q 276 471 308 447 l 438 603 q 505 550 467 581 q 585 484 543 519 q 672 410 628 449 q 756 333 715 372 q 852 238 803 290 q 947 137 901 186 q 1028 46 993 88 l 846 -99 q 771 -5 817 -58 q 674 105 725 49 q 578 206 624 161 z "},"ミ":{"ha":1389,"x_min":183,"x_max":1161,"o":"m 394 1099 q 527 1078 450 1092 q 692 1048 604 1065 q 869 1010 781 1031 q 1033 970 957 990 q 1161 932 1108 950 l 1082 742 q 961 780 1035 760 q 802 821 888 800 q 629 860 717 842 q 462 894 542 879 q 324 915 382 908 l 394 1099 m 332 722 q 505 690 407 710 q 708 647 603 671 q 906 599 813 624 q 1064 553 1000 575 l 989 360 q 838 408 929 382 q 644 458 747 433 q 440 503 540 483 q 260 536 339 524 l 332 722 m 261 326 q 424 297 333 315 q 614 257 515 279 q 808 211 713 235 q 987 164 904 188 q 1126 119 1069 140 l 1042 -74 q 902 -26 985 -51 q 723 23 819 -1 q 527 68 626 47 q 339 106 428 89 q 183 133 250 122 l 261 326 z "},"ム":{"ha":1389,"x_min":81,"x_max":1332,"o":"m 783 1051 q 753 977 769 1018 q 721 889 738 936 q 688 790 707 850 q 645 658 668 729 q 597 514 622 588 q 549 371 572 440 q 505 244 525 301 q 469 151 485 188 l 242 143 q 285 254 261 190 q 334 392 308 318 q 385 544 360 467 q 434 695 411 622 q 476 830 457 768 q 506 933 494 892 q 527 1026 519 988 q 539 1100 535 1064 l 783 1051 m 1028 607 q 1108 475 1065 550 q 1192 319 1150 400 q 1271 162 1235 238 q 1332 26 1307 86 l 1124 -67 q 1065 80 1100 -1 q 992 246 1031 161 q 914 404 954 331 q 836 528 874 478 l 1028 607 m 240 214 q 353 220 288 215 q 496 232 419 225 q 652 247 572 239 q 810 265 732 256 q 955 282 888 274 q 1071 297 1022 290 l 1115 99 q 992 84 1064 92 q 840 67 921 76 q 674 49 758 58 q 511 31 590 40 q 365 16 432 22 q 251 4 297 10 q 188 -3 225 1 q 117 -12 151 -8 l 81 213 q 162 212 118 211 q 240 214 206 213 z "},"モ":{"ha":1389,"x_min":143,"x_max":1274,"o":"m 235 1031 q 299 1026 265 1029 q 372 1024 333 1024 q 456 1024 404 1024 q 572 1024 507 1024 q 706 1024 638 1024 q 840 1024 775 1024 q 958 1024 906 1024 q 1043 1024 1011 1024 q 1113 1026 1079 1024 q 1171 1031 1146 1028 l 1171 840 q 1113 842 1143 842 q 1043 843 1082 843 q 954 843 1011 843 q 827 843 897 843 q 684 843 757 843 q 547 843 611 843 q 435 843 482 843 q 372 843 389 843 q 299 842 333 843 q 235 840 265 842 l 235 1031 m 726 529 q 726 469 726 510 q 726 384 726 429 q 726 301 726 339 q 726 243 726 263 q 763 164 726 185 q 881 143 800 143 q 1063 148 972 143 q 1236 163 1154 153 l 1222 -47 q 1115 -51 1179 -49 q 980 -54 1051 -53 q 843 -56 908 -56 q 640 -27 711 -56 q 542 55 568 1 q 515 182 515 108 q 515 264 515 215 q 515 365 515 313 q 515 463 515 418 q 515 536 515 508 q 515 588 515 551 q 515 671 515 625 q 515 761 515 717 q 515 840 515 806 q 515 888 515 875 l 726 888 q 726 836 726 875 q 726 747 726 797 q 726 647 726 696 q 726 564 726 597 q 726 529 726 531 m 143 632 q 220 627 174 631 q 300 624 267 624 q 384 624 329 624 q 508 624 439 624 q 655 624 578 624 q 808 624 732 624 q 950 624 883 624 q 1064 624 1017 624 q 1132 624 1111 624 q 1173 625 1147 624 q 1226 628 1199 626 q 1272 631 1254 629 l 1274 433 q 1203 438 1244 438 q 1138 438 1161 438 q 1066 438 1115 438 q 950 438 1017 438 q 807 438 883 438 q 653 438 731 438 q 506 438 575 438 q 383 438 438 438 q 300 438 329 438 q 223 435 271 438 q 143 431 175 433 l 143 632 z "},"ヤ":{"ha":1389,"x_min":61,"x_max":1314,"o":"m 504 1143 q 517 1082 510 1115 q 533 1014 524 1049 q 572 878 550 957 q 618 709 593 800 q 669 525 643 618 q 717 347 694 432 q 760 196 740 263 q 790 93 779 129 q 803 52 794 78 q 820 0 811 26 q 836 -44 829 -26 l 608 -97 q 594 -26 603 -67 q 575 50 585 14 q 552 135 567 81 q 518 261 538 190 q 478 412 499 332 q 435 573 457 492 q 394 729 414 654 q 357 865 374 804 q 328 965 340 926 q 303 1042 315 1014 q 281 1092 292 1071 l 504 1143 m 1314 882 q 1249 759 1290 828 q 1160 617 1208 690 q 1060 478 1111 544 q 967 363 1010 411 l 768 456 q 844 527 807 488 q 915 608 881 567 q 975 688 949 650 q 1017 753 1001 725 q 947 740 997 750 q 824 715 896 731 q 667 683 751 700 q 499 649 583 667 q 338 615 415 631 q 203 585 261 599 q 114 565 144 572 l 61 772 q 142 781 103 776 q 222 792 181 786 q 292 803 242 794 q 411 825 342 813 q 560 853 481 838 q 722 885 640 869 q 876 914 803 900 q 1003 939 949 928 q 1085 957 1058 950 q 1133 969 1108 961 q 1174 985 1157 976 l 1314 882 z "},"ユ":{"ha":1389,"x_min":96,"x_max":1294,"o":"m 1129 904 q 1119 867 1124 889 q 1113 836 1114 844 q 1099 729 1108 794 q 1076 589 1089 664 q 1052 440 1064 514 q 1031 303 1040 367 q 1014 203 1021 240 l 788 203 q 801 281 793 233 q 819 383 810 328 q 837 494 828 438 q 853 604 846 551 q 866 699 861 657 q 872 767 871 742 q 794 767 840 767 q 692 767 747 767 q 583 767 638 767 q 485 767 529 767 q 411 767 440 767 q 328 765 369 767 q 247 760 286 763 l 247 975 q 328 968 282 971 q 410 965 375 965 q 468 965 433 965 q 543 965 503 965 q 625 965 583 965 q 706 965 667 965 q 776 965 744 965 q 828 965 807 965 q 876 967 847 965 q 930 974 904 969 q 968 985 956 979 l 1129 904 m 96 265 q 167 256 131 260 q 238 253 204 253 l 1160 253 q 1233 257 1199 253 q 1294 265 1268 261 l 1294 42 q 1225 48 1264 46 q 1160 50 1186 50 l 238 50 q 169 48 206 50 q 96 42 132 46 l 96 265 z "},"ヨ":{"ha":1389,"x_min":196,"x_max":1189,"o":"m 214 1018 q 277 1015 239 1017 q 358 1011 315 1013 q 433 1010 400 1010 q 523 1010 472 1010 q 632 1010 574 1010 q 751 1010 690 1010 q 869 1010 811 1010 q 976 1010 928 1010 q 1061 1010 1025 1010 q 1130 1011 1093 1010 q 1189 1014 1167 1013 q 1188 960 1188 997 q 1188 893 1188 924 q 1188 817 1188 876 q 1188 674 1188 757 q 1188 497 1188 590 q 1188 314 1188 403 q 1188 156 1188 225 q 1188 53 1188 86 q 1188 -2 1188 31 q 1189 -57 1189 -35 l 975 -57 q 976 -17 976 -40 q 976 31 976 7 q 976 72 976 56 q 976 184 976 117 q 976 331 976 251 q 976 492 976 411 q 976 642 976 572 q 976 760 976 713 q 976 824 976 808 q 923 824 960 824 q 839 824 886 824 q 737 824 792 824 q 626 824 682 824 q 522 824 571 824 q 433 824 472 824 q 357 823 400 824 q 276 821 314 822 q 214 818 238 819 l 214 1018 m 263 624 q 352 619 300 621 q 454 617 404 617 q 526 617 476 617 q 642 617 576 617 q 778 617 708 617 q 912 617 849 617 q 1019 617 975 617 q 1074 617 1063 617 l 1074 431 q 1018 431 1063 431 q 911 431 974 431 q 778 431 849 431 q 643 431 708 431 q 527 431 578 431 q 454 431 476 431 q 349 430 404 431 q 263 429 293 429 l 263 624 m 196 210 q 256 206 218 208 q 340 204 293 204 q 426 204 367 204 q 562 204 485 204 q 720 204 639 204 q 876 204 801 204 q 1003 204 950 204 q 1075 204 1057 204 l 1075 13 q 994 13 1050 13 q 865 13 939 13 q 710 13 790 13 q 556 13 631 13 q 424 13 482 13 q 339 13 367 13 q 260 11 303 13 q 196 7 218 10 l 196 210 z "},"ラ":{"ha":1389,"x_min":178,"x_max":1267,"o":"m 307 1075 q 379 1069 336 1071 q 457 1067 422 1067 q 538 1067 483 1067 q 660 1067 593 1067 q 793 1067 726 1067 q 912 1067 860 1067 q 988 1067 964 1067 q 1067 1069 1021 1067 q 1144 1075 1114 1071 l 1144 876 q 1069 881 1115 879 q 985 882 1024 882 q 910 882 963 882 q 790 882 857 882 q 657 882 724 882 q 537 882 590 882 q 457 882 483 882 q 381 881 424 882 q 307 876 339 879 l 307 1075 m 1267 660 q 1250 628 1258 646 q 1238 599 1242 610 q 1157 400 1204 497 q 1032 217 1110 303 q 799 26 928 100 q 536 -87 669 -49 l 382 86 q 663 184 542 119 q 863 326 785 249 q 947 438 915 381 q 997 547 979 494 q 947 547 982 547 q 862 547 911 547 q 755 547 813 547 q 638 547 697 547 q 523 547 578 547 q 422 547 468 547 q 347 547 376 547 q 272 546 321 547 q 178 540 224 544 l 178 739 q 269 732 225 735 q 347 729 314 729 q 411 729 369 729 q 507 729 453 729 q 622 729 561 729 q 744 729 683 729 q 860 729 806 729 q 957 729 915 729 q 1021 729 999 729 q 1086 734 1058 729 q 1131 746 1114 739 l 1267 660 z "},"ル":{"ha":1389,"x_min":44,"x_max":1351,"o":"m 690 32 q 699 81 696 53 q 701 140 701 110 q 701 201 701 156 q 701 311 701 247 q 701 450 701 375 q 701 601 701 525 q 701 746 701 678 q 701 866 701 814 q 701 943 701 918 q 696 1030 701 993 q 690 1068 690 1067 l 918 1068 q 913 1029 918 1067 q 908 942 908 992 q 908 872 908 917 q 908 768 908 826 q 908 645 908 710 q 908 518 908 581 q 908 399 908 456 q 908 301 908 343 q 908 238 908 258 q 1022 302 964 261 q 1134 398 1079 343 q 1235 517 1189 453 l 1351 347 q 1215 202 1296 275 q 1047 69 1133 129 q 882 -31 960 10 q 844 -56 858 -44 q 818 -74 829 -67 l 690 32 m 44 56 q 195 210 138 121 q 279 386 253 300 q 303 496 294 429 q 315 639 311 563 q 320 792 319 715 q 321 932 321 868 q 317 1008 321 976 q 306 1067 313 1040 l 532 1067 q 529 1045 532 1065 q 524 995 526 1025 q 521 935 521 965 q 519 790 521 871 q 514 624 518 708 q 502 463 510 539 q 481 335 494 388 q 385 113 449 215 q 232 -69 322 11 l 44 56 z "},"ロ":{"ha":1389,"x_min":167,"x_max":1232,"o":"m 168 994 q 251 992 210 993 q 321 992 292 992 q 392 992 344 992 q 501 992 439 992 q 635 992 564 992 q 776 992 706 992 q 910 992 847 992 q 1019 992 972 992 q 1090 992 1067 992 q 1154 992 1117 992 q 1232 993 1192 992 q 1230 923 1231 961 q 1229 851 1229 885 q 1229 791 1229 832 q 1229 694 1229 750 q 1229 575 1229 638 q 1229 449 1229 513 q 1229 331 1229 386 q 1229 233 1229 275 q 1229 172 1229 192 q 1230 118 1229 151 q 1231 52 1231 85 q 1231 -3 1231 19 q 1232 -28 1232 -26 l 1019 -28 q 1020 7 1019 -26 q 1022 85 1021 40 q 1024 172 1024 131 q 1024 233 1024 190 q 1024 334 1024 276 q 1024 455 1024 392 q 1024 578 1024 518 q 1024 688 1024 639 q 1024 767 1024 738 q 1024 796 1024 796 l 376 796 q 376 767 376 796 q 376 688 376 738 q 376 578 376 639 q 376 455 376 518 q 376 335 376 392 q 376 235 376 278 q 376 172 376 192 q 376 110 376 144 q 377 46 376 76 q 378 -6 378 15 q 378 -28 378 -26 l 167 -28 q 167 -6 167 -26 q 169 48 168 15 q 169 114 169 81 q 169 175 169 147 q 169 235 169 193 q 169 333 169 276 q 169 451 169 389 q 169 577 169 514 q 169 695 169 640 q 169 791 169 750 q 169 851 169 832 q 169 924 169 883 q 168 994 169 964 m 1099 243 l 1099 47 l 271 47 l 271 243 l 1099 243 z "},"ワ":{"ha":1389,"x_min":143,"x_max":1264,"o":"m 1264 932 q 1253 901 1260 921 q 1243 860 1247 881 q 1236 831 1239 840 q 1206 674 1224 761 q 1156 494 1188 586 q 1068 315 1124 401 q 845 78 982 179 q 540 -83 708 -24 l 369 92 q 556 158 460 114 q 738 269 653 203 q 878 421 824 335 q 938 542 913 476 q 979 679 963 607 q 1003 824 996 751 q 945 824 983 824 q 855 824 907 824 q 745 824 803 824 q 629 824 688 824 q 519 824 571 824 q 426 824 467 824 q 365 824 386 824 q 365 790 365 811 q 365 745 365 769 q 365 696 365 721 q 365 647 365 671 q 365 606 365 624 q 366 555 365 590 q 369 485 367 519 l 143 485 q 149 548 146 519 q 151 606 151 576 q 151 666 151 628 q 151 749 151 704 q 151 833 151 793 q 151 899 151 874 q 149 960 151 928 q 144 1021 147 992 q 225 1017 179 1019 q 321 1015 271 1015 q 369 1015 332 1015 q 457 1015 406 1015 q 569 1015 508 1015 q 690 1015 629 1015 q 806 1015 750 1015 q 906 1015 863 1015 q 971 1015 949 1015 q 1047 1018 1010 1015 q 1115 1026 1085 1021 l 1264 932 z "},"ヲ":{"ha":1389,"x_min":197,"x_max":1265,"o":"m 197 1039 q 270 1033 226 1038 q 358 1028 314 1028 q 430 1028 382 1028 q 540 1028 478 1028 q 669 1028 601 1028 q 799 1028 738 1028 q 908 1028 861 1028 q 975 1028 954 1028 q 1046 1031 1010 1028 q 1113 1042 1082 1033 l 1265 946 q 1253 914 1260 931 q 1242 881 1246 897 q 1199 698 1224 793 q 1142 516 1174 603 q 1071 367 1110 429 q 931 187 1011 271 q 738 34 850 103 q 471 -90 625 -35 l 311 79 q 536 158 429 107 q 729 276 643 208 q 871 426 815 344 q 918 510 896 465 q 957 607 940 556 q 987 717 974 658 q 1010 839 1000 775 q 940 839 989 839 q 824 839 890 839 q 686 839 758 839 q 548 839 614 839 q 433 839 482 839 q 360 839 383 839 q 277 836 322 839 q 197 831 232 833 l 197 1039 m 1024 475 q 943 475 994 475 q 829 475 892 475 q 700 475 767 475 q 571 475 633 475 q 458 475 508 475 q 379 475 408 475 q 306 474 340 475 q 233 468 271 472 l 233 663 q 301 658 264 660 q 371 656 339 656 q 454 656 401 656 q 572 656 507 656 q 707 656 638 656 q 841 656 776 656 q 956 656 906 656 q 1033 656 1006 656 l 1024 475 z "},"ン":{"ha":1389,"x_min":150,"x_max":1314,"o":"m 340 1067 q 425 1005 376 1042 q 526 926 474 968 q 624 844 578 885 q 700 771 669 803 l 543 610 q 473 681 515 640 q 381 765 431 721 q 282 847 331 808 q 194 911 233 886 l 340 1067 m 150 143 q 351 185 257 158 q 526 245 444 211 q 676 318 608 279 q 899 481 799 390 q 1074 672 999 572 q 1194 867 1150 771 l 1314 650 q 1180 460 1260 554 q 1001 281 1100 365 q 788 129 901 197 q 635 50 717 88 q 463 -16 553 13 q 281 -60 374 -44 l 150 143 z "}}}
